<svg width="16" height="16" viewBox="0 0 16 16" fill="none" xmlns="http://www.w3.org/2000/svg">
<g clip-path="url(#clip0_1226_8114)">
<path d="M7.99476 1.99902H3.33122C2.97783 1.99902 2.63892 2.1394 2.38904 2.38929C2.13916 2.63917 1.99878 2.97808 1.99878 3.33146V12.6585C1.99878 13.0119 2.13916 13.3508 2.38904 13.6007C2.63892 13.8506 2.97783 13.991 3.33122 13.991H12.6583C13.0117 13.991 13.3506 13.8506 13.6005 13.6007C13.8504 13.3508 13.9907 13.0119 13.9907 12.6585V7.995" stroke="white" stroke-width="1.33244" stroke-linecap="round" stroke-linejoin="round"/>
<path d="M12.2418 1.7489C12.5069 1.48386 12.8663 1.33496 13.2412 1.33496C13.616 1.33496 13.9755 1.48386 14.2405 1.7489C14.5055 2.01394 14.6544 2.3734 14.6544 2.74823C14.6544 3.12305 14.5055 3.48252 14.2405 3.74756L8.23586 9.75286C8.07767 9.91092 7.88224 10.0266 7.66758 10.0893L5.75353 10.6489C5.6962 10.6656 5.63543 10.6666 5.57759 10.6518C5.51974 10.637 5.46694 10.6069 5.42471 10.5647C5.38249 10.5225 5.35239 10.4697 5.33757 10.4118C5.32275 10.354 5.32375 10.2932 5.34047 10.2359L5.9001 8.32182C5.96307 8.10733 6.079 7.91213 6.2372 7.7542L12.2418 1.7489Z" stroke="white" stroke-width="1.33244" stroke-linecap="round" stroke-linejoin="round"/>
</g>
<defs>
<clipPath id="clip0_1226_8114">
<rect width="15.9893" height="15.9893" fill="white"/>
</clipPath>
</defs>
</svg>
