<svg width="16" height="16" viewBox="0 0 16 16" fill="none" xmlns="http://www.w3.org/2000/svg">
<g clip-path="url(#clip0_1226_8881)">
<path d="M6.66211 7.32861V11.3259" stroke="#E7000B" stroke-width="1.33244" stroke-linecap="round" stroke-linejoin="round"/>
<path d="M9.32715 7.32861V11.3259" stroke="#E7000B" stroke-width="1.33244" stroke-linecap="round" stroke-linejoin="round"/>
<path d="M12.6581 3.99756V13.3246C12.6581 13.678 12.5177 14.0169 12.2679 14.2668C12.018 14.5167 11.6791 14.6571 11.3257 14.6571H4.66349C4.31011 14.6571 3.9712 14.5167 3.72132 14.2668C3.47144 14.0169 3.33105 13.678 3.33105 13.3246V3.99756" stroke="#E7000B" stroke-width="1.33244" stroke-linecap="round" stroke-linejoin="round"/>
<path d="M1.99902 3.99756H13.991" stroke="#E7000B" stroke-width="1.33244" stroke-linecap="round" stroke-linejoin="round"/>
<path d="M5.33008 3.9974V2.66496C5.33008 2.31157 5.47046 1.97266 5.72034 1.72278C5.97022 1.4729 6.30913 1.33252 6.66252 1.33252H9.3274C9.68078 1.33252 10.0197 1.4729 10.2696 1.72278C10.5195 1.97266 10.6598 2.31157 10.6598 2.66496V3.9974" stroke="#E7000B" stroke-width="1.33244" stroke-linecap="round" stroke-linejoin="round"/>
</g>
<defs>
<clipPath id="clip0_1226_8881">
<rect width="15.9893" height="15.9893" fill="white"/>
</clipPath>
</defs>
</svg>
