<svg width="16" height="16" viewBox="0 0 16 16" fill="none" xmlns="http://www.w3.org/2000/svg">
<path d="M11.333 8.93317V10.9332C11.333 13.5998 10.2663 14.6665 7.59967 14.6665H5.06634C2.39967 14.6665 1.33301 13.5998 1.33301 10.9332V8.39984C1.33301 5.73317 2.39967 4.6665 5.06634 4.6665H7.06634" stroke="#314158" stroke-linecap="round" stroke-linejoin="round"/>
<path d="M11.3331 8.93317H9.19974C7.59974 8.93317 7.06641 8.39984 7.06641 6.79984V4.6665L11.3331 8.93317Z" stroke="#314158" stroke-linecap="round" stroke-linejoin="round"/>
<path d="M7.7334 1.3335H10.4001" stroke="#314158" stroke-linecap="round" stroke-linejoin="round"/>
<path d="M4.66699 3.3335C4.66699 2.22683 5.56033 1.3335 6.66699 1.3335H8.41366" stroke="#314158" stroke-linecap="round" stroke-linejoin="round"/>
<path d="M14.6663 5.3335V9.46016C14.6663 10.4935 13.8263 11.3335 12.793 11.3335" stroke="#314158" stroke-linecap="round" stroke-linejoin="round"/>
<path d="M14.667 5.3335H12.667C11.167 5.3335 10.667 4.8335 10.667 3.3335V1.3335L14.667 5.3335Z" stroke="#314158" stroke-linecap="round" stroke-linejoin="round"/>
</svg>
