<svg width="16" height="16" viewBox="0 0 16 16" fill="none" xmlns="http://www.w3.org/2000/svg">
<g clip-path="url(#clip0_1226_10950)">
<path d="M14.6564 11.3261C14.6564 11.6795 14.516 12.0184 14.2662 12.2683C14.0163 12.5182 13.6774 12.6585 13.324 12.6585H4.54854C4.19518 12.6586 3.85633 12.799 3.6065 13.0489L2.13949 14.516C2.07334 14.5821 1.98906 14.6271 1.89731 14.6454C1.80556 14.6636 1.71046 14.6543 1.62404 14.6185C1.53762 14.5827 1.46374 14.5221 1.41177 14.4443C1.35979 14.3665 1.33204 14.2751 1.33203 14.1815V3.33146C1.33203 2.97808 1.47241 2.63917 1.72229 2.38929C1.97217 2.1394 2.31109 1.99902 2.66447 1.99902H13.324C13.6774 1.99902 14.0163 2.1394 14.2662 2.38929C14.516 2.63917 14.6564 2.97808 14.6564 3.33146V11.3261Z" stroke="#45556C" stroke-width="1.33244" stroke-linecap="round" stroke-linejoin="round"/>
</g>
<defs>
<clipPath id="clip0_1226_10950">
<rect width="15.9893" height="15.9893" fill="white"/>
</clipPath>
</defs>
</svg>
