<svg width="12" height="12" viewBox="0 0 12 12" fill="none" xmlns="http://www.w3.org/2000/svg">
<path d="M7.26496 4.73496L4.73496 7.26496C4.40996 6.93996 4.20996 6.49496 4.20996 5.99996C4.20996 5.00996 5.00996 4.20996 5.99996 4.20996C6.49496 4.20996 6.93996 4.40996 7.26496 4.73496Z" stroke="#45556C" stroke-linecap="round" stroke-linejoin="round"/>
<path d="M8.91004 2.88523C8.03504 2.22523 7.03504 1.86523 6.00004 1.86523C4.23504 1.86523 2.59004 2.90523 1.44504 4.70523C0.995044 5.41023 0.995044 6.59523 1.44504 7.30023C1.84004 7.92023 2.30004 8.45523 2.80004 8.88523" stroke="#45556C" stroke-linecap="round" stroke-linejoin="round"/>
<path d="M4.20996 9.76484C4.77996 10.0048 5.38496 10.1348 5.99996 10.1348C7.76496 10.1348 9.40996 9.09484 10.555 7.29484C11.005 6.58984 11.005 5.40484 10.555 4.69984C10.39 4.43984 10.21 4.19484 10.025 3.96484" stroke="#45556C" stroke-linecap="round" stroke-linejoin="round"/>
<path d="M7.75497 6.3501C7.62497 7.0551 7.04997 7.6301 6.34497 7.7601" stroke="#45556C" stroke-linecap="round" stroke-linejoin="round"/>
<path d="M4.735 7.26514L1 11.0001" stroke="#45556C" stroke-linecap="round" stroke-linejoin="round"/>
<path d="M11 1L7.26501 4.735" stroke="#45556C" stroke-linecap="round" stroke-linejoin="round"/>
</svg>
