<svg width="12" height="12" viewBox="0 0 12 12" fill="none" xmlns="http://www.w3.org/2000/svg">
<g clip-path="url(#clip0_1226_10913)">
<path d="M1.49564 8.1678C1.56912 8.35318 1.58548 8.55631 1.54262 8.75106L1.01034 10.3954C0.993191 10.4787 0.997625 10.5651 1.02322 10.6463C1.04882 10.7275 1.09474 10.8008 1.15661 10.8593C1.21849 10.9178 1.29428 10.9595 1.37679 10.9804C1.4593 11.0014 1.54579 11.0009 1.62808 10.9791L3.33385 10.4803C3.51763 10.4439 3.70796 10.4598 3.88312 10.5263C4.95036 11.0247 6.15934 11.1301 7.29675 10.824C8.43416 10.5179 9.4269 9.81993 10.0998 8.8532C10.7728 7.88647 11.0826 6.71313 10.9748 5.54019C10.8669 4.36726 10.3482 3.27012 9.51027 2.44233C8.67231 1.61455 7.56891 1.10932 6.39475 1.01579C5.22058 0.922257 4.05112 1.24643 3.09268 1.93112C2.13424 2.61581 1.44842 3.61701 1.15623 4.75807C0.864031 5.89913 0.984237 7.10673 1.49564 8.1678Z" stroke="#8200DB" stroke-width="0.999576" stroke-linecap="round" stroke-linejoin="round"/>
</g>
<defs>
<clipPath id="clip0_1226_10913">
<rect width="11.9949" height="11.9949" fill="white"/>
</clipPath>
</defs>
</svg>
