<svg width="24" height="24" viewBox="0 0 24 24" fill="none" xmlns="http://www.w3.org/2000/svg">
<path d="M21.7262 17.996L13.7279 3.99903C13.5535 3.6913 13.3006 3.43534 12.995 3.25726C12.6894 3.07918 12.342 2.98535 11.9883 2.98535C11.6346 2.98535 11.2872 3.07918 10.9816 3.25726C10.6759 3.43534 10.423 3.6913 10.2486 3.99903L2.25036 17.996C2.07408 18.3013 1.98165 18.6478 1.98243 19.0003C1.98321 19.3528 2.07718 19.6989 2.25481 20.0034C2.43244 20.3079 2.68741 20.5601 2.9939 20.7343C3.30038 20.9085 3.64747 20.9985 3.99998 20.9954H19.9965C20.3474 20.995 20.6919 20.9024 20.9956 20.7267C21.2993 20.5511 21.5514 20.2986 21.7267 19.9947C21.9019 19.6908 21.9942 19.3461 21.9941 18.9953C21.994 18.6445 21.9016 18.2998 21.7262 17.996Z" stroke="#E7000B" stroke-width="1.99957" stroke-linecap="round" stroke-linejoin="round"/>
<path d="M11.998 8.99805V12.998" stroke="#E7000B" stroke-width="1.99957" stroke-linecap="round" stroke-linejoin="round"/>
<path d="M11.998 16.9966H12.008" stroke="#E7000B" stroke-width="1.99957" stroke-linecap="round" stroke-linejoin="round"/>
</svg>
