<svg width="18" height="18" viewBox="0 0 18 18" fill="none" xmlns="http://www.w3.org/2000/svg">
<path d="M14.2488 8.24902H3.74986C2.92151 8.24902 2.25 8.92053 2.25 9.74888V14.9984C2.25 15.8267 2.92151 16.4982 3.74986 16.4982H14.2488C15.0772 16.4982 15.7487 15.8267 15.7487 14.9984V9.74888C15.7487 8.92053 15.0772 8.24902 14.2488 8.24902Z" stroke="#314158" stroke-width="1.49986" stroke-linecap="round" stroke-linejoin="round"/>
<path d="M5.25 8.24935V5.24964C5.25 4.25517 5.64505 3.30144 6.34824 2.59824C7.05144 1.89505 8.00517 1.5 8.99964 1.5C9.99411 1.5 10.9478 1.89505 11.651 2.59824C12.3542 3.30144 12.7493 4.25517 12.7493 5.24964V8.24935" stroke="#314158" stroke-width="1.49986" stroke-linecap="round" stroke-linejoin="round"/>
</svg>
