<svg width="20" height="20" viewBox="0 0 20 20" fill="none" xmlns="http://www.w3.org/2000/svg">
<g clip-path="url(#clip0_52_5880)">
<path d="M2.49224 13.6152C2.61474 13.9242 2.64202 14.2628 2.57055 14.5875L1.68325 17.3285C1.65466 17.4675 1.66206 17.6115 1.70473 17.7469C1.7474 17.8822 1.82394 18.0044 1.92709 18.1019C2.03023 18.1994 2.15657 18.2689 2.29412 18.3038C2.43166 18.3388 2.57585 18.338 2.71302 18.3016L5.55654 17.4702C5.8629 17.4094 6.18017 17.4359 6.47216 17.5468C8.25125 18.3776 10.2666 18.5534 12.1627 18.0431C14.0587 17.5328 15.7136 16.3693 16.8354 14.7577C17.9572 13.1462 18.4737 11.1903 18.2939 9.23498C18.1141 7.27971 17.2495 5.45078 15.8526 4.07086C14.4557 2.69095 12.6164 1.84874 10.659 1.69282C8.70171 1.53691 6.75221 2.07731 5.1545 3.21868C3.55679 4.36005 2.41353 6.02904 1.92644 7.93119C1.43936 9.83334 1.63974 11.8464 2.49224 13.6152Z" stroke="#155DFC" stroke-width="1.66629" stroke-linecap="round" stroke-linejoin="round"/>
</g>
<defs>
<clipPath id="clip0_52_5880">
<rect width="19.9955" height="19.9955" fill="white"/>
</clipPath>
</defs>
</svg>
