<svg width="18" height="18" viewBox="0 0 18 18" fill="none" xmlns="http://www.w3.org/2000/svg">
<g clip-path="url(#clip0_17_2431)">
<path d="M9 5.24951V15.7485" stroke="#314158" stroke-width="1.49986" stroke-linecap="round" stroke-linejoin="round"/>
<path d="M2.24993 13.4989C2.05103 13.4989 1.86029 13.4199 1.71965 13.2793C1.57901 13.1386 1.5 12.9479 1.5 12.749V2.99993C1.5 2.80103 1.57901 2.61029 1.71965 2.46965C1.86029 2.32901 2.05103 2.25 2.24993 2.25H5.99957C6.79514 2.25 7.55813 2.56604 8.12068 3.1286C8.68324 3.69115 8.99928 4.45414 8.99928 5.24971C8.99928 4.45414 9.31532 3.69115 9.87787 3.1286C10.4404 2.56604 11.2034 2.25 11.999 2.25H15.7486C15.9475 2.25 16.1383 2.32901 16.2789 2.46965C16.4195 2.61029 16.4986 2.80103 16.4986 2.99993V12.749C16.4986 12.9479 16.4195 13.1386 16.2789 13.2793C16.1383 13.4199 15.9475 13.4989 15.7486 13.4989H11.2491C10.6524 13.4989 10.0801 13.7359 9.65822 14.1579C9.23631 14.5798 8.99928 15.152 8.99928 15.7487C8.99928 15.152 8.76225 14.5798 8.34033 14.1579C7.91842 13.7359 7.34617 13.4989 6.7495 13.4989H2.24993Z" stroke="#314158" stroke-width="1.49986" stroke-linecap="round" stroke-linejoin="round"/>
</g>
<defs>
<clipPath id="clip0_17_2431">
<rect width="17.9983" height="17.9983" fill="white"/>
</clipPath>
</defs>
</svg>
