<svg width="18" height="18" viewBox="0 0 18 18" fill="none" xmlns="http://www.w3.org/2000/svg">
<g clip-path="url(#clip0_17_2365)">
<path d="M14.9974 15.7464V9.74772C14.9974 9.34999 14.8394 8.96854 14.5582 8.68729C14.2769 8.40605 13.8955 8.24805 13.4977 8.24805H4.49968C4.10194 8.24805 3.72049 8.40605 3.43925 8.68729C3.158 8.96854 3 9.34999 3 9.74772V15.7464" stroke="#314158" stroke-width="1.49968" stroke-linecap="round" stroke-linejoin="round"/>
<path d="M3 11.9974C3 11.9974 3.37492 11.2476 4.49968 11.2476C5.62444 11.2476 6.37427 12.7472 7.49903 12.7472C8.62379 12.7472 9.37363 11.2476 10.4984 11.2476C11.6231 11.2476 12.373 12.7472 13.4977 12.7472C14.6225 12.7472 14.9974 11.9974 14.9974 11.9974" stroke="#314158" stroke-width="1.49968" stroke-linecap="round" stroke-linejoin="round"/>
<path d="M1.5 15.7466H16.4968" stroke="#314158" stroke-width="1.49968" stroke-linecap="round" stroke-linejoin="round"/>
<path d="M5.24805 5.99854V8.24805" stroke="#314158" stroke-width="1.49968" stroke-linecap="round" stroke-linejoin="round"/>
<path d="M8.99805 5.99854V8.24805" stroke="#314158" stroke-width="1.49968" stroke-linecap="round" stroke-linejoin="round"/>
<path d="M12.748 5.99854V8.24805" stroke="#314158" stroke-width="1.49968" stroke-linecap="round" stroke-linejoin="round"/>
<path d="M5.24805 2.99951H5.25555" stroke="#314158" stroke-width="1.49968" stroke-linecap="round" stroke-linejoin="round"/>
<path d="M8.99805 2.99951H9.00555" stroke="#314158" stroke-width="1.49968" stroke-linecap="round" stroke-linejoin="round"/>
<path d="M12.748 2.99951H12.7555" stroke="#314158" stroke-width="1.49968" stroke-linecap="round" stroke-linejoin="round"/>
</g>
<defs>
<clipPath id="clip0_17_2365">
<rect width="17.9961" height="17.9961" fill="white"/>
</clipPath>
</defs>
</svg>
