<svg width="18" height="18" viewBox="0 0 18 18" fill="none" xmlns="http://www.w3.org/2000/svg">
<path d="M11.999 15.7486V14.2487C11.999 13.4532 11.683 12.6902 11.1204 12.1276C10.5578 11.5651 9.79485 11.249 8.99928 11.249H4.49971C3.70414 11.249 2.94115 11.5651 2.3786 12.1276C1.81604 12.6902 1.5 13.4532 1.5 14.2487V15.7486" stroke="#E7000B" stroke-width="1.49986" stroke-linecap="round" stroke-linejoin="round"/>
<path d="M6.74971 8.24942C8.40641 8.24942 9.74942 6.90641 9.74942 5.24971C9.74942 3.59302 8.40641 2.25 6.74971 2.25C5.09302 2.25 3.75 3.59302 3.75 5.24971C3.75 6.90641 5.09302 8.24942 6.74971 8.24942Z" stroke="#E7000B" stroke-width="1.49986" stroke-linecap="round" stroke-linejoin="round"/>
<path d="M12.748 5.99951L16.4977 9.74915" stroke="#E7000B" stroke-width="1.49986" stroke-linecap="round" stroke-linejoin="round"/>
<path d="M16.4977 5.99951L12.748 9.74915" stroke="#E7000B" stroke-width="1.49986" stroke-linecap="round" stroke-linejoin="round"/>
</svg>
