<svg width="18" height="18" viewBox="0 0 18 18" fill="none" xmlns="http://www.w3.org/2000/svg">
<path d="M12.75 13.8223H9.75L6.41249 16.0423C5.91749 16.3723 5.25 16.0198 5.25 15.4198V13.8223C3 13.8223 1.5 12.3223 1.5 10.0723V5.57227C1.5 3.32227 3 1.82227 5.25 1.82227H12.75C15 1.82227 16.5 3.32227 16.5 5.57227V10.0723C16.5 12.3223 15 13.8223 12.75 13.8223Z" stroke="#314158" stroke-width="1.5" stroke-miterlimit="10" stroke-linecap="round" stroke-linejoin="round"/>
<path d="M9.00084 8.52002V8.36255C9.00084 7.85255 9.31586 7.58254 9.63086 7.36504C9.93836 7.15504 10.2458 6.88505 10.2458 6.39005C10.2458 5.70005 9.69084 5.14502 9.00084 5.14502C8.31084 5.14502 7.75586 5.70005 7.75586 6.39005" stroke="#314158" stroke-width="1.5" stroke-linecap="round" stroke-linejoin="round"/>
<path d="M8.99662 10.3125H9.00337" stroke="#314158" stroke-width="1.5" stroke-linecap="round" stroke-linejoin="round"/>
</svg>
