<svg width="18" height="18" viewBox="0 0 18 18" fill="none" xmlns="http://www.w3.org/2000/svg">
<g clip-path="url(#clip0_17_2444)">
<path d="M11.999 15.7486V14.2487C11.999 13.4532 11.683 12.6902 11.1204 12.1276C10.5578 11.5651 9.79485 11.249 8.99928 11.249H4.49971C3.70414 11.249 2.94115 11.5651 2.3786 12.1276C1.81604 12.6902 1.5 13.4532 1.5 14.2487V15.7486" stroke="#008236" stroke-width="1.49986" stroke-linecap="round" stroke-linejoin="round"/>
<path d="M11.998 2.3457C12.6413 2.51246 13.211 2.8881 13.6177 3.41365C14.0243 3.9392 14.245 4.5849 14.245 5.24942C14.245 5.91394 14.0243 6.55965 13.6177 7.0852C13.211 7.61075 12.6413 7.98638 11.998 8.15314" stroke="#008236" stroke-width="1.49986" stroke-linecap="round" stroke-linejoin="round"/>
<path d="M16.4978 15.7483V14.2484C16.4973 13.5838 16.2761 12.9381 15.8689 12.4128C15.4617 11.8875 14.8916 11.5124 14.248 11.3462" stroke="#008236" stroke-width="1.49986" stroke-linecap="round" stroke-linejoin="round"/>
<path d="M6.74971 8.24942C8.40641 8.24942 9.74942 6.90641 9.74942 5.24971C9.74942 3.59302 8.40641 2.25 6.74971 2.25C5.09302 2.25 3.75 3.59302 3.75 5.24971C3.75 6.90641 5.09302 8.24942 6.74971 8.24942Z" stroke="#008236" stroke-width="1.49986" stroke-linecap="round" stroke-linejoin="round"/>
</g>
<defs>
<clipPath id="clip0_17_2444">
<rect width="17.9983" height="17.9983" fill="white"/>
</clipPath>
</defs>
</svg>
