<svg width="20" height="20" viewBox="0 0 20 20" fill="none" xmlns="http://www.w3.org/2000/svg">
<g clip-path="url(#clip0_52_5869)">
<path d="M14.1641 11.6642V1.6665" stroke="#E7000B" stroke-width="1.66629" stroke-linecap="round" stroke-linejoin="round"/>
<path d="M7.49897 15.0968L8.33211 11.6642H3.47488C3.2162 11.6642 2.96107 11.604 2.72969 11.4883C2.49832 11.3726 2.29706 11.2047 2.14185 10.9977C1.98664 10.7908 1.88175 10.5505 1.83547 10.296C1.7892 10.0415 1.80281 9.77972 1.87525 9.53138L3.81647 2.86623C3.91742 2.52012 4.12791 2.21608 4.41633 1.99976C4.70476 1.78344 5.05557 1.6665 5.41611 1.6665H16.6635C17.1055 1.6665 17.5293 1.84206 17.8418 2.15455C18.1543 2.46704 18.3298 2.89086 18.3298 3.33279V9.99794C18.3298 10.4399 18.1543 10.8637 17.8418 11.1762C17.5293 11.4887 17.1055 11.6642 16.6635 11.6642H14.3641C14.0541 11.6644 13.7503 11.751 13.4868 11.9144C13.2234 12.0778 13.0107 12.3114 12.8727 12.589L9.9984 18.3294C9.60551 18.3245 9.21879 18.2309 8.86715 18.0556C8.51551 17.8803 8.20803 17.6278 7.96769 17.3169C7.72735 17.0061 7.56035 16.645 7.47919 16.2605C7.39802 15.8761 7.40479 15.4783 7.49897 15.0968Z" stroke="#E7000B" stroke-width="1.66629" stroke-linecap="round" stroke-linejoin="round"/>
</g>
<defs>
<clipPath id="clip0_52_5869">
<rect width="19.9955" height="19.9955" fill="white"/>
</clipPath>
</defs>
</svg>
