<svg width="36" height="36" viewBox="0 0 36 36" fill="none" xmlns="http://www.w3.org/2000/svg">
<path d="M23.9996 31.4994V28.4994C23.9996 26.9081 23.3675 25.382 22.2423 24.2568C21.1171 23.1316 19.591 22.4995 17.9997 22.4995H8.9999C7.40862 22.4995 5.88253 23.1316 4.75733 24.2568C3.63213 25.382 3 26.9081 3 28.4994V31.4994" stroke="#90A1B9" stroke-width="2.99995" stroke-linecap="round" stroke-linejoin="round"/>
<path d="M13.4999 16.4998C16.8135 16.4998 19.4998 13.8135 19.4998 10.4999C19.4998 7.18624 16.8135 4.5 13.4999 4.5C10.1862 4.5 7.5 7.18624 7.5 10.4999C7.5 13.8135 10.1862 16.4998 13.4999 16.4998Z" stroke="#90A1B9" stroke-width="2.99995" stroke-linecap="round" stroke-linejoin="round"/>
<path d="M25.5 12L32.9999 19.4999" stroke="#90A1B9" stroke-width="2.99995" stroke-linecap="round" stroke-linejoin="round"/>
<path d="M32.9999 12L25.5 19.4999" stroke="#90A1B9" stroke-width="2.99995" stroke-linecap="round" stroke-linejoin="round"/>
</svg>
