<svg width="16" height="16" viewBox="0 0 16 16" fill="none" xmlns="http://www.w3.org/2000/svg">
<path d="M9.99248 1.33252H3.9965C3.64312 1.33252 3.30421 1.4729 3.05432 1.72278C2.80444 1.97266 2.66406 2.31157 2.66406 2.66496V13.3245C2.66406 13.6779 2.80444 14.0168 3.05432 14.2666C3.30421 14.5165 3.64312 14.6569 3.9965 14.6569H11.9911C12.3445 14.6569 12.6834 14.5165 12.9333 14.2666C13.1832 14.0168 13.3236 13.6779 13.3236 13.3245V4.66362L9.99248 1.33252Z" stroke="#45556C" stroke-width="1.33244" stroke-linecap="round" stroke-linejoin="round"/>
<path d="M9.32617 1.33252V3.9974C9.32617 4.35078 9.46655 4.68969 9.71643 4.93957C9.96632 5.18946 10.3052 5.32984 10.6586 5.32984H13.3235" stroke="#45556C" stroke-width="1.33244" stroke-linecap="round" stroke-linejoin="round"/>
<path d="M6.66252 5.99609H5.33008" stroke="#45556C" stroke-width="1.33244" stroke-linecap="round" stroke-linejoin="round"/>
<path d="M10.6598 8.66064H5.33008" stroke="#45556C" stroke-width="1.33244" stroke-linecap="round" stroke-linejoin="round"/>
<path d="M10.6598 11.3257H5.33008" stroke="#45556C" stroke-width="1.33244" stroke-linecap="round" stroke-linejoin="round"/>
</svg>
