<svg width="18" height="18" viewBox="0 0 18 18" fill="none" xmlns="http://www.w3.org/2000/svg">
<path d="M7.70117 15.7485C7.83282 15.9765 8.02215 16.1658 8.25015 16.2975C8.47815 16.4291 8.73678 16.4984 9.00005 16.4984C9.26331 16.4984 9.52194 16.4291 9.74994 16.2975C9.97794 16.1658 10.1673 15.9765 10.2989 15.7485" stroke="#314158" stroke-width="1.49986" stroke-linecap="round" stroke-linejoin="round"/>
<path d="M2.44593 11.4935C2.34797 11.6009 2.28331 11.7344 2.25984 11.8779C2.23637 12.0213 2.25509 12.1685 2.31373 12.3015C2.37236 12.4345 2.46838 12.5476 2.59011 12.627C2.71184 12.7065 2.85403 12.7488 2.99938 12.7489H14.9982C15.1436 12.749 15.2858 12.7068 15.4076 12.6275C15.5294 12.5482 15.6255 12.4353 15.6843 12.3023C15.7431 12.1694 15.762 12.0223 15.7387 11.8788C15.7155 11.7354 15.651 11.6018 15.5532 11.4943C14.5558 10.4661 13.4984 9.37349 13.4984 5.99957C13.4984 4.80621 13.0243 3.66173 12.1805 2.81789C11.3366 1.97406 10.1922 1.5 8.9988 1.5C7.80544 1.5 6.66096 1.97406 5.81713 2.81789C4.9733 3.66173 4.49924 4.80621 4.49924 5.99957C4.49924 9.37349 3.44109 10.4661 2.44593 11.4935Z" stroke="#314158" stroke-width="1.49986" stroke-linecap="round" stroke-linejoin="round"/>
</svg>
