<svg width="20" height="20" viewBox="0 0 20 20" fill="none" xmlns="http://www.w3.org/2000/svg">
<g clip-path="url(#clip0_52_5909)">
<path d="M3.33203 18.3294V3.33279C3.33203 3.20345 3.36215 3.07588 3.41999 2.9602C3.47783 2.84451 3.56182 2.74388 3.66529 2.66628C4.53057 2.01731 5.583 1.6665 6.66461 1.6665C9.16404 1.6665 10.8303 3.33279 12.774 3.33279C13.8849 3.33279 14.7367 3.11062 15.3293 2.66628C15.4531 2.57344 15.6003 2.51691 15.7544 2.50301C15.9085 2.48912 16.0634 2.51841 16.2018 2.5876C16.3402 2.6568 16.4566 2.76317 16.5379 2.89478C16.6192 3.0264 16.6623 3.17807 16.6623 3.33279V11.6642C16.6623 11.7936 16.6322 11.9211 16.5744 12.0368C16.5165 12.1525 16.4325 12.2531 16.3291 12.3307C15.4638 12.9797 14.4114 13.3305 13.3298 13.3305C10.8303 13.3305 9.16404 11.6642 6.66461 11.6642C5.43498 11.6643 4.24851 12.1175 3.33203 12.9373" stroke="#E17100" stroke-width="1.66629" stroke-linecap="round" stroke-linejoin="round"/>
</g>
<defs>
<clipPath id="clip0_52_5909">
<rect width="19.9955" height="19.9955" fill="white"/>
</clipPath>
</defs>
</svg>
