<svg width="18" height="18" viewBox="0 0 18 18" fill="none" xmlns="http://www.w3.org/2000/svg">
<g clip-path="url(#clip0_17_2460)">
<path d="M16.4986 12.749C16.4986 13.1468 16.3405 13.5283 16.0593 13.8095C15.778 14.0908 15.3965 14.2488 14.9987 14.2488H5.12065C4.7229 14.2489 4.34147 14.407 4.06025 14.6883L2.40891 16.3396C2.33445 16.4141 2.23958 16.4648 2.13631 16.4853C2.03303 16.5059 1.92598 16.4953 1.8287 16.455C1.73141 16.4147 1.64826 16.3465 1.58976 16.259C1.53125 16.1714 1.50001 16.0685 1.5 15.9632V3.74986C1.5 3.35207 1.65802 2.97058 1.9393 2.6893C2.22058 2.40802 2.60207 2.25 2.99986 2.25H14.9987C15.3965 2.25 15.778 2.40802 16.0593 2.6893C16.3405 2.97058 16.4986 3.35207 16.4986 3.74986V12.749Z" stroke="#314158" stroke-width="1.49986" stroke-linecap="round" stroke-linejoin="round"/>
</g>
<defs>
<clipPath id="clip0_17_2460">
<rect width="17.9983" height="17.9983" fill="white"/>
</clipPath>
</defs>
</svg>
