<svg width="20" height="20" viewBox="0 0 20 20" fill="none" xmlns="http://www.w3.org/2000/svg">
<g clip-path="url(#clip0_1422_2534)">
<path d="M16.6609 10.8295C16.6609 14.9947 13.7452 17.0774 10.2797 18.2853C10.0982 18.3468 9.9011 18.3439 9.72155 18.277C6.24772 17.0774 3.33203 14.9947 3.33203 10.8295V4.99811C3.33203 4.77717 3.4198 4.56528 3.57603 4.40906C3.73225 4.25283 3.94414 4.16506 4.16508 4.16506C5.83119 4.16506 7.91382 3.1654 9.36333 1.89916C9.53982 1.74837 9.76433 1.66553 9.99645 1.66553C10.2286 1.66553 10.4531 1.74837 10.6296 1.89916C12.0874 3.17373 14.1617 4.16506 15.8278 4.16506C16.0488 4.16506 16.2607 4.25283 16.4169 4.40906C16.5731 4.56528 16.6609 4.77717 16.6609 4.99811V10.8295Z" stroke="white" stroke-width="1.66611" stroke-linecap="round" stroke-linejoin="round"/>
</g>
<defs>
<clipPath id="clip0_1422_2534">
<rect width="19.9933" height="19.9933" fill="white"/>
</clipPath>
</defs>
</svg>
