<svg width="18" height="18" viewBox="0 0 18 18" fill="none" xmlns="http://www.w3.org/2000/svg">
<path d="M5.25 7.49951V16.4986" stroke="#314158" stroke-width="1.49986" stroke-linecap="round" stroke-linejoin="round"/>
<path d="M11.2491 4.40972L10.4991 7.49942H14.8712C15.1041 7.49942 15.3337 7.55364 15.542 7.65777C15.7502 7.7619 15.9314 7.91309 16.0711 8.09937C16.2108 8.28564 16.3052 8.50189 16.3469 8.73098C16.3885 8.96007 16.3763 9.19571 16.3111 9.41924L14.5637 15.4187C14.4729 15.7302 14.2834 16.0039 14.0238 16.1986C13.7642 16.3933 13.4484 16.4986 13.1239 16.4986H2.99986C2.60207 16.4986 2.22058 16.3405 1.9393 16.0593C1.65802 15.778 1.5 15.3965 1.5 14.9987V8.99928C1.5 8.60149 1.65802 8.22 1.9393 7.93872C2.22058 7.65744 2.60207 7.49942 2.99986 7.49942H5.06966C5.34869 7.49927 5.62216 7.42129 5.8593 7.27423C6.09644 7.12718 6.28786 6.91689 6.41203 6.667L8.99928 1.5C9.35293 1.50438 9.70102 1.58862 10.0175 1.74642C10.3341 1.90423 10.6108 2.13152 10.8272 2.41131C11.0435 2.69111 11.1938 3.01617 11.2669 3.36222C11.3399 3.70827 11.3338 4.06635 11.2491 4.40972Z" stroke="#314158" stroke-width="1.49986" stroke-linecap="round" stroke-linejoin="round"/>
</svg>
