<svg width="29" height="29" viewBox="0 0 29 29" fill="none" xmlns="http://www.w3.org/2000/svg">
<path d="M2.59547 19.5866C2.78261 20.0586 2.82427 20.5759 2.7151 21.0718L1.35965 25.2591C1.31597 25.4715 1.32726 25.6914 1.39245 25.8982C1.45764 26.105 1.57456 26.2916 1.73213 26.4405C1.8897 26.5894 2.0827 26.6956 2.29281 26.749C2.50293 26.8024 2.7232 26.8013 2.93274 26.7457L7.27656 25.4755C7.74456 25.3826 8.22923 25.4232 8.67528 25.5926C11.393 26.8618 14.4718 27.1303 17.3682 26.3508C20.2647 25.5712 22.7927 23.7938 24.5064 21.3319C26.22 18.8701 27.0091 15.8822 26.7344 12.8953C26.4597 9.90835 25.1389 7.11443 23.005 5.00645C20.8711 2.89846 18.0613 1.61188 15.0712 1.3737C12.0812 1.13552 9.10309 1.96105 6.66239 3.70463C4.22169 5.44821 2.47523 7.9978 1.73115 10.9036C0.987063 13.8093 1.29317 16.8845 2.59547 19.5866Z" fill="#155DFC" stroke="white" stroke-width="2.66667" stroke-linecap="round" stroke-linejoin="round"/>
</svg>
