<svg width="12" height="12" viewBox="0 0 12 12" fill="none" xmlns="http://www.w3.org/2000/svg">
<g clip-path="url(#clip0_295_542)">
<path d="M5.99788 10.9958C8.75813 10.9958 10.9958 8.75813 10.9958 5.99788C10.9958 3.23763 8.75813 1 5.99788 1C3.23763 1 1 3.23763 1 5.99788C1 8.75813 3.23763 10.9958 5.99788 10.9958Z" stroke="#008236" stroke-width="0.999576" stroke-linecap="round" stroke-linejoin="round"/>
<path d="M4.54297 4.49791C4.66047 4.16388 4.8924 3.88222 5.19767 3.70281C5.50294 3.5234 5.86186 3.45782 6.21085 3.51768C6.55984 3.57754 6.87639 3.75898 7.10442 4.02987C7.33245 4.30076 7.45726 4.64361 7.45673 4.99769C7.45673 5.99727 5.95737 6.49706 5.95737 6.49706" stroke="#008236" stroke-width="0.999576" stroke-linecap="round" stroke-linejoin="round"/>
<path d="M5.99805 8.49609H6.00304" stroke="#008236" stroke-width="0.999576" stroke-linecap="round" stroke-linejoin="round"/>
</g>
<defs>
<clipPath id="clip0_295_542">
<rect width="11.9949" height="11.9949" fill="white"/>
</clipPath>
</defs>
</svg>
