<svg width="12" height="12" viewBox="0 0 12 12" fill="none" xmlns="http://www.w3.org/2000/svg">
<g clip-path="url(#clip0_52_6723)">
<path d="M5.99805 3.49805V10.4951" stroke="#BB4D00" stroke-width="0.999576" stroke-linecap="round" stroke-linejoin="round"/>
<path d="M1.49979 8.99584C1.36724 8.99584 1.24011 8.94318 1.14638 8.84946C1.05266 8.75573 1 8.6286 1 8.49605V1.99881C1 1.86626 1.05266 1.73914 1.14638 1.64541C1.24011 1.55168 1.36724 1.49902 1.49979 1.49902H3.99873C4.52893 1.49902 5.03743 1.70965 5.41234 2.08456C5.78725 2.45947 5.99788 2.96797 5.99788 3.49817C5.99788 2.96797 6.2085 2.45947 6.58342 2.08456C6.95833 1.70965 7.46682 1.49902 7.99703 1.49902H10.496C10.6285 1.49902 10.7556 1.55168 10.8494 1.64541C10.9431 1.73914 10.9958 1.86626 10.9958 1.99881V8.49605C10.9958 8.6286 10.9431 8.75573 10.8494 8.84946C10.7556 8.94318 10.6285 8.99584 10.496 8.99584H7.49724C7.09959 8.99584 6.71822 9.15381 6.43703 9.43499C6.15585 9.71618 5.99788 10.0975 5.99788 10.4952C5.99788 10.0975 5.83991 9.71618 5.55872 9.43499C5.27754 9.15381 4.89617 8.99584 4.49851 8.99584H1.49979Z" stroke="#BB4D00" stroke-width="0.999576" stroke-linecap="round" stroke-linejoin="round"/>
</g>
<defs>
<clipPath id="clip0_52_6723">
<rect width="11.9949" height="11.9949" fill="white"/>
</clipPath>
</defs>
</svg>
