<svg width="20" height="20" viewBox="0 0 20 20" fill="none" xmlns="http://www.w3.org/2000/svg">
<path fill-rule="evenodd" clip-rule="evenodd" d="M17.9964 9.99769C17.9964 12.1189 17.1537 14.1533 15.6537 15.6533C14.1538 17.1532 12.1194 17.9959 9.99818 17.9959C7.87693 17.9959 5.84256 17.1532 4.34261 15.6533C2.84266 14.1533 2 12.1189 2 9.99769C2 7.87644 2.84266 5.84207 4.34261 4.34212C5.84256 2.84217 7.87693 1.99951 9.99818 1.99951C12.1194 1.99951 14.1538 2.84217 15.6537 4.34212C17.1537 5.84207 17.9964 7.87644 17.9964 9.99769ZM9.99818 4.99883C10.197 4.99883 10.3878 5.07783 10.5284 5.21845C10.669 5.35907 10.748 5.54979 10.748 5.74866V10.2476C10.748 10.4465 10.669 10.6372 10.5284 10.7778C10.3878 10.9185 10.197 10.9975 9.99818 10.9975C9.79931 10.9975 9.60859 10.9185 9.46797 10.7778C9.32735 10.6372 9.24835 10.4465 9.24835 10.2476V5.74866C9.24835 5.54979 9.32735 5.35907 9.46797 5.21845C9.60859 5.07783 9.79931 4.99883 9.99818 4.99883ZM9.99818 14.9966C10.2633 14.9966 10.5176 14.8912 10.7051 14.7037C10.8926 14.5162 10.998 14.2619 10.998 13.9968C10.998 13.7316 10.8926 13.4773 10.7051 13.2898C10.5176 13.1023 10.2633 12.997 9.99818 12.997C9.73302 12.997 9.47873 13.1023 9.29123 13.2898C9.10374 13.4773 8.99841 13.7316 8.99841 13.9968C8.99841 14.2619 9.10374 14.5162 9.29123 14.7037C9.47873 14.8912 9.73302 14.9966 9.99818 14.9966Z" fill="#0A0A0A"/>
</svg>
