<svg width="16" height="16" viewBox="0 0 16 16" fill="none" xmlns="http://www.w3.org/2000/svg">
<g clip-path="url(#clip0_52_5187)">
<path d="M8.00048 2C8.44491 3.77771 9.33376 5.2221 10.667 6.33317C12.0003 7.44424 12.667 8.66642 12.667 9.9997C12.667 11.2373 12.1753 12.4243 11.3002 13.2994C10.4251 14.1746 9.23811 14.6662 8.00048 14.6662C6.76285 14.6662 5.57591 14.1746 4.70077 13.2994C3.82563 12.4243 3.33398 11.2373 3.33398 9.9997C3.33398 9.2785 3.5679 8.57674 4.00063 7.99978C4.00063 8.44179 4.17621 8.8657 4.48876 9.17825C4.80131 9.49079 5.22522 9.66638 5.66723 9.66638C6.10924 9.66638 6.53315 9.49079 6.8457 9.17825C7.15825 8.8657 7.33384 8.44179 7.33384 7.99978C7.33384 6.66649 6.33387 5.99985 6.33387 4.66657C6.33387 3.77771 6.88941 2.88886 8.00048 2Z" stroke="#FF8904" stroke-width="1.33328" stroke-linecap="round" stroke-linejoin="round"/>
</g>
<defs>
<clipPath id="clip0_52_5187">
<rect width="15.9994" height="15.9994" fill="white"/>
</clipPath>
</defs>
</svg>
