<svg width="30" height="30" viewBox="0 0 30 30" fill="none" xmlns="http://www.w3.org/2000/svg">
<path d="M2.65526 20.4553C2.85132 20.9498 2.89496 21.4917 2.7806 22.0113L1.3606 26.3979C1.31484 26.6204 1.32667 26.8509 1.39496 27.0675C1.46326 27.2841 1.58575 27.4796 1.75082 27.6356C1.91589 27.7916 2.11807 27.9029 2.3382 27.9588C2.55832 28.0147 2.78908 28.0135 3.0086 27.9553L7.55926 26.6246C8.04955 26.5274 8.5573 26.5699 9.0246 26.7473C11.8718 28.0769 15.0971 28.3582 18.1315 27.5416C21.1658 26.7249 23.8143 24.8628 25.6095 22.2838C27.4048 19.7047 28.2314 16.5745 27.9437 13.4453C27.6559 10.3162 26.2722 7.38922 24.0367 5.18086C21.8012 2.9725 18.8575 1.62465 15.7251 1.37513C12.5927 1.12561 9.47278 1.99044 6.91585 3.81705C4.35893 5.64366 2.5293 8.31466 1.74979 11.3588C0.97027 14.4029 1.29096 17.6245 2.65526 20.4553Z" fill="#155DFC" stroke="white" stroke-width="2.66667" stroke-linecap="round" stroke-linejoin="round"/>
</svg>
