<svg xmlns="http://www.w3.org/2000/svg" fill="none" viewBox="0 5.546111111111111 53.382 58.625" style="max-height: 500px" width="53.382" height="58.625">
<g filter="url(#filter0_d_1393_2275)">
<g filter="url(#filter1_dd_1393_2275)">
<path fill="#155DFC" d="M5 25.5C5 17.768 11.268 11.5 19 11.5H35C42.732 11.5 49 17.768 49 25.5V41.5C49 49.232 42.732 55.5 35 55.5H19C11.268 55.5 5 49.232 5 41.5V25.5Z"/>
</g>
<path stroke-linejoin="round" stroke-linecap="round" stroke-width="2.66667" stroke="white" fill="#155DFC" d="M15.3223 37.6223C15.5183 38.1168 15.562 38.6587 15.4476 39.1783L14.0276 43.5649C13.9818 43.7874 13.9937 44.0178 14.062 44.2345C14.1302 44.4511 14.2527 44.6466 14.4178 44.8026C14.5829 44.9586 14.7851 45.0699 15.0052 45.1258C15.2253 45.1817 15.4561 45.1805 15.6756 45.1223L20.2263 43.7916C20.7165 43.6943 21.2243 43.7368 21.6916 43.9143C24.5388 45.2439 27.7641 45.5252 30.7985 44.7086C33.8328 43.8919 36.4813 42.0298 38.2765 39.4508C40.0718 36.8717 40.8984 33.7415 40.6107 30.6123C40.3229 27.4832 38.9392 24.5562 36.7037 22.3479C34.4682 20.1395 31.5245 18.7916 28.3921 18.5421C25.2597 18.2926 22.1398 19.1574 19.5828 20.984C17.0259 22.8107 15.1963 25.4816 14.4168 28.5258C13.6373 31.5699 13.9579 34.7915 15.3223 37.6223Z"/>
</g>
<path fill="#0F172B" d="M63.8374 63.1136V27.8636H70.8473V32.1697H71.1644C71.476 31.4799 71.9266 30.7789 72.5163 30.0668C73.1172 29.3435 73.8961 28.7427 74.853 28.2642C75.821 27.7746 77.0227 27.5298 78.4581 27.5298C80.3274 27.5298 82.0521 28.0194 83.6321 28.9986C85.2121 29.9666 86.475 31.4298 87.4208 33.3881C88.3666 35.3353 88.8395 37.7777 88.8395 40.7152C88.8395 43.5748 88.3777 45.9893 87.4542 47.9588C86.5418 49.9171 85.2956 51.4026 83.7156 52.4151C82.1467 53.4165 80.3886 53.9173 78.4414 53.9173C77.0617 53.9173 75.8878 53.6892 74.9197 53.233C73.9628 52.7768 73.1784 52.2037 72.5664 51.5138C71.9544 50.8129 71.4871 50.1063 71.1644 49.3942H70.9474V63.1136H63.8374ZM70.7972 40.6818C70.7972 42.2062 71.0086 43.5359 71.4315 44.6708C71.8543 45.8058 72.4663 46.6903 73.2674 47.3246C74.0685 47.9477 75.0421 48.2592 76.1882 48.2592C77.3454 48.2592 78.3246 47.9421 79.1257 47.3079C79.9268 46.6625 80.5333 45.7724 80.945 44.6374C81.3678 43.4914 81.5792 42.1728 81.5792 40.6818C81.5792 39.2019 81.3733 37.9001 80.9616 36.7763C80.55 35.6525 79.9435 34.7734 79.1424 34.1392C78.3413 33.505 77.3565 33.1879 76.1882 33.1879C75.031 33.1879 74.0518 33.4938 73.2507 34.1058C72.4607 34.7178 71.8543 35.5857 71.4315 36.7095C71.0086 37.8333 70.7972 39.1574 70.7972 40.6818ZM100.041 53.984C98.4058 53.984 96.9482 53.7003 95.6686 53.1328C94.389 52.5542 93.3765 51.703 92.631 50.5792C91.8966 49.4442 91.5294 48.0311 91.5294 46.3398C91.5294 44.9156 91.7909 43.7195 92.3138 42.7514C92.8368 41.7834 93.5489 41.0045 94.4502 40.4148C95.3515 39.825 96.3752 39.38 97.5212 39.0795C98.6784 38.7791 99.8913 38.5677 101.16 38.4453C102.651 38.2895 103.852 38.1449 104.765 38.0114C105.677 37.8667 106.339 37.6553 106.751 37.3771C107.163 37.099 107.369 36.6873 107.369 36.142V36.0419C107.369 34.9848 107.035 34.167 106.367 33.5884C105.711 33.0098 104.776 32.7205 103.563 32.7205C102.284 32.7205 101.265 33.0043 100.509 33.5717C99.7522 34.1281 99.2515 34.8291 99.0067 35.6747L92.4307 35.1406C92.7645 33.5829 93.421 32.2365 94.4001 31.1016C95.3793 29.9555 96.6422 29.0765 98.1888 28.4645C99.7466 27.8414 101.549 27.5298 103.597 27.5298C105.021 27.5298 106.384 27.6967 107.686 28.0305C108.999 28.3643 110.161 28.8817 111.174 29.5827C112.198 30.2837 113.004 31.185 113.594 32.2866C114.184 33.377 114.479 34.6844 114.479 36.2088V53.5H107.736V49.945H107.535C107.124 50.7461 106.573 51.4527 105.883 52.0646C105.193 52.6655 104.364 53.1384 103.396 53.4833C102.428 53.8171 101.31 53.984 100.041 53.984ZM102.078 49.0771C103.124 49.0771 104.047 48.8712 104.848 48.4595C105.649 48.0367 106.278 47.4692 106.734 46.7571C107.191 46.045 107.419 45.2383 107.419 44.337V41.6165C107.196 41.7611 106.89 41.8946 106.501 42.017C106.122 42.1283 105.694 42.234 105.215 42.3342C104.737 42.4232 104.259 42.5066 103.78 42.5845C103.302 42.6513 102.868 42.7125 102.478 42.7681C101.644 42.8905 100.915 43.0852 100.292 43.3523C99.6687 43.6193 99.1847 43.9809 98.8398 44.4371C98.4948 44.8822 98.3224 45.4386 98.3224 46.1062C98.3224 47.0742 98.6729 47.8142 99.3739 48.326C100.086 48.8267 100.987 49.0771 102.078 49.0771ZM126.256 19.3182V53.5H119.146V19.3182H126.256Z"/>
<path fill="#0F172B" d="M65.8324 17.2884L65.8288 15.7365H66.0348L67.995 13.5455H69.4972L67.0859 16.2301H66.8196L65.8324 17.2884ZM64.6605 19V11.7273H65.946V19H64.6605ZM68.0838 19L66.3082 16.5178L67.1747 15.6122L69.6214 19H68.0838ZM72.8585 19.1065C72.3259 19.1065 71.8642 18.9893 71.4736 18.755C71.083 18.5206 70.7799 18.1927 70.5645 17.7713C70.3514 17.3499 70.2449 16.8575 70.2449 16.294C70.2449 15.7306 70.3514 15.237 70.5645 14.8132C70.7799 14.3894 71.083 14.0604 71.4736 13.826C71.8642 13.5916 72.3259 13.4744 72.8585 13.4744C73.3912 13.4744 73.8528 13.5916 74.2435 13.826C74.6341 14.0604 74.9359 14.3894 75.149 14.8132C75.3644 15.237 75.4722 15.7306 75.4722 16.294C75.4722 16.8575 75.3644 17.3499 75.149 17.7713C74.9359 18.1927 74.6341 18.5206 74.2435 18.755C73.8528 18.9893 73.3912 19.1065 72.8585 19.1065ZM72.8656 18.0767C73.1545 18.0767 73.3959 17.9974 73.5901 17.8388C73.7842 17.6778 73.9286 17.4624 74.0233 17.1925C74.1204 16.9226 74.1689 16.6219 74.1689 16.2905C74.1689 15.9567 74.1204 15.6548 74.0233 15.3849C73.9286 15.1127 73.7842 14.8961 73.5901 14.7351C73.3959 14.5741 73.1545 14.4936 72.8656 14.4936C72.5697 14.4936 72.3235 14.5741 72.127 14.7351C71.9329 14.8961 71.7873 15.1127 71.6902 15.3849C71.5955 15.6548 71.5482 15.9567 71.5482 16.2905C71.5482 16.6219 71.5955 16.9226 71.6902 17.1925C71.7873 17.4624 71.9329 17.6778 72.127 17.8388C72.3235 17.9974 72.5697 18.0767 72.8656 18.0767ZM76.9701 19V11.7273H78.2556V14.4474H78.3088C78.3751 14.3149 78.4686 14.174 78.5894 14.0249C78.7101 13.8733 78.8735 13.7443 79.0794 13.6378C79.2854 13.5289 79.5482 13.4744 79.8678 13.4744C80.2892 13.4744 80.6692 13.5821 81.0077 13.7976C81.3486 14.0107 81.6185 14.3267 81.8174 14.7457C82.0186 15.1624 82.1192 15.6738 82.1192 16.2798C82.1192 16.8788 82.021 17.3878 81.8245 17.8068C81.628 18.2259 81.3605 18.5455 81.0219 18.7656C80.6834 18.9858 80.2998 19.0959 79.8713 19.0959C79.5588 19.0959 79.2996 19.0438 79.0936 18.9396C78.8877 18.8355 78.722 18.71 78.5965 18.5632C78.4734 18.4141 78.3775 18.2732 78.3088 18.1406H78.2343V19H76.9701ZM78.2307 16.2727C78.2307 16.6255 78.2804 16.9344 78.3799 17.1996C78.4817 17.4647 78.6273 17.6719 78.8167 17.821C79.0084 17.9678 79.2404 18.0412 79.5127 18.0412C79.7968 18.0412 80.0347 17.9654 80.2265 17.8139C80.4182 17.66 80.5626 17.4505 80.6597 17.1854C80.7591 16.9179 80.8088 16.6136 80.8088 16.2727C80.8088 15.9342 80.7603 15.6335 80.6632 15.3707C80.5662 15.108 80.4218 14.902 80.23 14.7528C80.0382 14.6037 79.7991 14.5291 79.5127 14.5291C79.2381 14.5291 79.0049 14.6013 78.8131 14.7457C78.6213 14.8902 78.4757 15.0926 78.3763 15.353C78.2792 15.6134 78.2307 15.92 78.2307 16.2727ZM83.5621 19V13.5455H84.8476V19H83.5621ZM84.2084 12.7713C84.0048 12.7713 83.8296 12.7038 83.6828 12.5689C83.536 12.4316 83.4626 12.267 83.4626 12.0753C83.4626 11.8812 83.536 11.7166 83.6828 11.5817C83.8296 11.4444 84.0048 11.3757 84.2084 11.3757C84.4143 11.3757 84.5895 11.4444 84.7339 11.5817C84.8807 11.7166 84.9541 11.8812 84.9541 12.0753C84.9541 12.267 84.8807 12.4316 84.7339 12.5689C84.5895 12.7038 84.4143 12.7713 84.2084 12.7713Z"/>
<path fill="#155DFC" d="M130.852 50C130.852 47.7909 132.642 46 134.852 46C137.061 46 138.852 47.7909 138.852 50C138.852 52.2091 137.061 54 134.852 54C132.642 54 130.852 52.2091 130.852 50Z"/>
<defs>
<filter color-interpolation-filters="sRGB" filterUnits="userSpaceOnUse" height="52" width="52" y="11.5" x="1" id="filter0_d_1393_2275">
<feFlood result="BackgroundImageFix" flood-opacity="0"/>
<feColorMatrix result="hardAlpha" values="0 0 0 0 0 0 0 0 0 0 0 0 0 0 0 0 0 0 127 0" type="matrix" in="SourceAlpha"/>
<feOffset dy="4"/>
<feGaussianBlur stdDeviation="2"/>
<feComposite operator="out" in2="hardAlpha"/>
<feColorMatrix values="0 0 0 0 0 0 0 0 0 0 0 0 0 0 0 0 0 0 0.25 0" type="matrix"/>
<feBlend result="effect1_dropShadow_1393_2275" in2="BackgroundImageFix" mode="normal"/>
<feBlend result="shape" in2="effect1_dropShadow_1393_2275" in="SourceGraphic" mode="normal"/>
</filter>
<filter color-interpolation-filters="sRGB" filterUnits="userSpaceOnUse" height="54" width="54" y="10.5" x="0" id="filter1_dd_1393_2275">
<feFlood result="BackgroundImageFix" flood-opacity="0"/>
<feColorMatrix result="hardAlpha" values="0 0 0 0 0 0 0 0 0 0 0 0 0 0 0 0 0 0 127 0" type="matrix" in="SourceAlpha"/>
<feMorphology result="effect1_dropShadow_1393_2275" in="SourceAlpha" operator="erode" radius="2"/>
<feOffset dy="2"/>
<feGaussianBlur stdDeviation="2"/>
<feComposite operator="out" in2="hardAlpha"/>
<feColorMatrix values="0 0 0 0 0 0 0 0 0 0 0 0 0 0 0 0 0 0 0.1 0" type="matrix"/>
<feBlend result="effect1_dropShadow_1393_2275" in2="BackgroundImageFix" mode="normal"/>
<feColorMatrix result="hardAlpha" values="0 0 0 0 0 0 0 0 0 0 0 0 0 0 0 0 0 0 127 0" type="matrix" in="SourceAlpha"/>
<feMorphology result="effect2_dropShadow_1393_2275" in="SourceAlpha" operator="erode" radius="1"/>
<feOffset dy="4"/>
<feGaussianBlur stdDeviation="3"/>
<feComposite operator="out" in2="hardAlpha"/>
<feColorMatrix values="0 0 0 0 0 0 0 0 0 0 0 0 0 0 0 0 0 0 0.1 0" type="matrix"/>
<feBlend result="effect2_dropShadow_1393_2275" in2="effect1_dropShadow_1393_2275" mode="normal"/>
<feBlend result="shape" in2="effect2_dropShadow_1393_2275" in="SourceGraphic" mode="normal"/>
</filter>
</defs>
</svg>