<svg width="12" height="12" viewBox="0 0 12 12" fill="none" xmlns="http://www.w3.org/2000/svg">
<g clip-path="url(#clip0_295_536)">
<path d="M9.9966 4.9983C9.9966 7.49374 7.22828 10.0926 6.29867 10.8953C6.21207 10.9604 6.10666 10.9956 5.9983 10.9956C5.88995 10.9956 5.78453 10.9604 5.69793 10.8953C4.76832 10.0926 2 7.49374 2 4.9983C2 3.93789 2.42125 2.9209 3.17108 2.17108C3.9209 1.42125 4.93789 1 5.9983 1C7.05872 1 8.0757 1.42125 8.82553 2.17108C9.57536 2.9209 9.9966 3.93789 9.9966 4.9983Z" stroke="#1447E6" stroke-width="0.999576" stroke-linecap="round" stroke-linejoin="round"/>
<path d="M5.99741 6.49677C6.82549 6.49677 7.49677 5.82549 7.49677 4.99741C7.49677 4.16933 6.82549 3.49805 5.99741 3.49805C5.16933 3.49805 4.49805 4.16933 4.49805 4.99741C4.49805 5.82549 5.16933 6.49677 5.99741 6.49677Z" stroke="#1447E6" stroke-width="0.999576" stroke-linecap="round" stroke-linejoin="round"/>
</g>
<defs>
<clipPath id="clip0_295_536">
<rect width="11.9949" height="11.9949" fill="white"/>
</clipPath>
</defs>
</svg>
