<svg width="20" height="20" viewBox="0 0 20 20" fill="none" xmlns="http://www.w3.org/2000/svg">
<g clip-path="url(#clip0_52_6949)">
<path d="M15.8267 9.1626H4.16492C3.24483 9.1626 2.49895 9.90848 2.49895 10.8286V16.6595C2.49895 17.5795 3.24483 18.3254 4.16492 18.3254H15.8267C16.7468 18.3254 17.4927 17.5795 17.4927 16.6595V10.8286C17.4927 9.90848 16.7468 9.1626 15.8267 9.1626Z" stroke="#90A1B9" stroke-width="1.66597" stroke-linecap="round" stroke-linejoin="round"/>
<path d="M5.83089 9.16288V5.83094C5.83089 4.72633 6.26969 3.66697 7.05076 2.88589C7.83184 2.10482 8.8912 1.66602 9.99581 1.66602C11.1004 1.66602 12.1598 2.10482 12.9409 2.88589C13.7219 3.66697 14.1607 4.72633 14.1607 5.83094V9.16288" stroke="#90A1B9" stroke-width="1.66597" stroke-linecap="round" stroke-linejoin="round"/>
</g>
<defs>
<clipPath id="clip0_52_6949">
<rect width="19.9916" height="19.9916" fill="white"/>
</clipPath>
</defs>
</svg>
