<svg width="20" height="20" viewBox="0 0 20 20" fill="none" xmlns="http://www.w3.org/2000/svg">
<path d="M11.6655 3.33301C11.9661 3.333 12.2612 3.41433 12.5194 3.56837C12.7776 3.72241 12.9893 3.94343 13.1321 4.20801L13.5371 4.95801C13.6799 5.22258 13.8917 5.4436 14.1499 5.59764C14.4081 5.75169 14.7031 5.83301 15.0038 5.83301H16.668C17.11 5.83301 17.5339 6.0086 17.8465 6.32116C18.159 6.63372 18.3346 7.05765 18.3346 7.49967V14.9997C18.3346 15.4417 18.159 15.8656 17.8465 16.1782C17.5339 16.4907 17.11 16.6663 16.668 16.6663H3.33464C2.89261 16.6663 2.46868 16.4907 2.15612 16.1782C1.84356 15.8656 1.66797 15.4417 1.66797 14.9997V7.49967C1.66797 7.05765 1.84356 6.63372 2.15612 6.32116C2.46868 6.0086 2.89261 5.83301 3.33464 5.83301H4.9988C5.29915 5.83302 5.59393 5.75188 5.85195 5.59815C6.10998 5.44442 6.32167 5.22382 6.46464 4.95967L6.87214 4.20634C7.0151 3.9422 7.22679 3.7216 7.48482 3.56787C7.74284 3.41414 8.03762 3.33299 8.33797 3.33301H11.6655Z" stroke="white" stroke-width="1.66667" stroke-linecap="round" stroke-linejoin="round"/>
<path d="M10 13.333C11.3807 13.333 12.5 12.2137 12.5 10.833C12.5 9.4523 11.3807 8.33301 10 8.33301C8.61929 8.33301 7.5 9.4523 7.5 10.833C7.5 12.2137 8.61929 13.333 10 13.333Z" stroke="white" stroke-width="1.66667" stroke-linecap="round" stroke-linejoin="round"/>
</svg>
