<svg width="18" height="16" viewBox="0 0 18 16" fill="none" xmlns="http://www.w3.org/2000/svg">
<path fill-rule="evenodd" clip-rule="evenodd" d="M13.4451 0C14.652 0 15.813 0.471111 16.6671 1.31644C17.5221 2.16 18 3.29778 18 4.48889V11.5111C18 13.9911 15.957 16 13.4451 16H4.554C2.0421 16 0 13.9911 0 11.5111V4.48889C0 2.00889 2.0331 0 4.554 0H13.4451ZM14.877 5.81345L14.949 5.74234C15.1641 5.48456 15.1641 5.11123 14.9391 4.85345C14.814 4.72101 14.6421 4.64012 14.463 4.62234C14.274 4.61256 14.094 4.67567 13.9581 4.80012L9.89997 8.00012C9.37797 8.42767 8.63007 8.42767 8.09997 8.00012L4.04997 4.80012C3.77007 4.59567 3.38307 4.62234 3.14997 4.86234C2.90697 5.10234 2.87997 5.48456 3.08607 5.75123L3.20397 5.86679L7.29897 9.02234C7.80297 9.41345 8.41407 9.62679 9.05397 9.62679C9.69207 9.62679 10.314 9.41345 10.8171 9.02234L14.877 5.81345Z" fill="#8A8D9E"/>
</svg>
