<svg width="15" height="18" viewBox="0 0 15 18" fill="none" xmlns="http://www.w3.org/2000/svg">
<path d="M7.48633 0C10.194 0 12.373 2.17335 12.373 4.85645V6.23633C13.8928 6.72019 15 8.12378 15 9.7998V14.2432C14.9998 16.3179 13.3134 18 11.2344 18H3.7666C1.68664 18 0.000213611 16.3179 0 14.2432V9.7998C0 8.12378 1.10814 6.72019 2.62695 6.23633V4.85645C2.63592 2.17342 4.81458 0.000121164 7.48633 0ZM7.49512 10.2461C7.06494 10.2463 6.71582 10.5953 6.71582 11.0244V13.0098C6.71599 13.4477 7.06504 13.7967 7.49512 13.7969C7.93434 13.7969 8.28401 13.4479 8.28418 13.0098V11.0244C8.28418 10.5951 7.93445 10.2461 7.49512 10.2461ZM7.50488 1.56543C5.6848 1.56543 4.20525 3.03225 4.19629 4.83887V6.04199H10.8037V4.85645C10.8037 3.04102 9.32478 1.56565 7.50488 1.56543Z" fill="#6F7786"/>
</svg>
