<svg width="21" height="21" viewBox="0 0 21 21" fill="none" xmlns="http://www.w3.org/2000/svg">
<path d="M16.7725 3.25C17.0286 3.00018 17.4301 3.00018 17.6777 3.25C17.9338 3.49983 17.9338 3.9133 17.6777 4.16309L16.124 5.73047C17.362 6.86758 18.4118 8.40163 19.1973 10.2451C19.2654 10.4087 19.2655 10.598 19.1973 10.7529C17.3703 15.0427 14.1178 17.6101 10.498 17.6104H10.4893C8.84148 17.6104 7.26176 17.0668 5.87012 16.0762L4.21387 17.748C4.08592 17.8771 3.92377 17.9374 3.76172 17.9375C3.5995 17.9375 3.42812 17.8773 3.30859 17.748C3.09519 17.5327 3.06172 17.1883 3.23242 16.9385L3.25781 16.9033L15.8848 4.16309L15.9707 4.05957L16.7725 3.25ZM10.501 3.39941C11.7219 3.39941 12.9091 3.69184 14.002 4.24316L11.1504 7.12012C10.9455 7.08566 10.723 7.06055 10.501 7.06055C8.61439 7.0608 7.08599 8.60227 7.08594 10.5059C7.08594 10.7298 7.11233 10.9544 7.14648 11.1611L3.9873 14.3477C3.13361 13.3484 2.39082 12.1427 1.80176 10.7559C1.73346 10.6008 1.73346 10.4107 1.80176 10.2471C3.62886 5.95736 6.88184 3.39941 10.4932 3.39941H10.501ZM12.3828 9.50391C12.5364 9.79674 12.622 10.1412 12.6221 10.5029C12.6221 11.6831 11.6657 12.6484 10.4961 12.6484C10.1376 12.6484 9.79607 12.5622 9.50586 12.4072L8.5752 13.3457C9.1216 13.7161 9.78748 13.9404 10.4961 13.9404C12.3743 13.9404 13.9023 12.3981 13.9023 10.5029C13.9023 9.788 13.6806 9.11573 13.3135 8.56445L12.3828 9.50391Z" fill="#6F7786"/>
</svg>
