<svg xmlns="http://www.w3.org/2000/svg" fill="none" viewBox="3.4865912762520193 12.062 97.08077544426494 68.16" style="max-height: 500px" width="97.08077544426494" height="68.16">
<path fill="#0F172B" d="M4.25604 79.107V26.232H14.771V32.6911H15.2466C15.714 31.6563 16.3899 30.6048 17.2745 29.5367C18.1758 28.4518 19.3441 27.5505 20.7795 26.8328C22.2315 26.0985 24.0341 25.7313 26.1871 25.7313C28.9911 25.7313 31.5781 26.4656 33.9482 27.9344C36.3182 29.3865 38.2125 31.5812 39.6312 34.5187C41.0499 37.4395 41.7592 41.1031 41.7592 45.5093C41.7592 49.7987 41.0666 53.4205 39.6813 56.3747C38.3127 59.3122 36.4434 61.5404 34.0733 63.0592C31.72 64.5613 29.0829 65.3124 26.1621 65.3124C24.0925 65.3124 22.3317 64.9703 20.8796 64.286C19.4442 63.6017 18.2676 62.7421 17.3496 61.7073C16.4316 60.6558 15.7306 59.596 15.2466 58.5278H14.9212V79.107H4.25604ZM14.6958 45.4593C14.6958 47.7458 15.013 49.7403 15.6472 51.4427C16.2814 53.1452 17.1994 54.472 18.4011 55.4234C19.6028 56.358 21.0632 56.8254 22.7823 56.8254C24.5181 56.8254 25.9869 56.3497 27.1886 55.3983C28.3903 54.4303 29.2999 53.0951 29.9174 51.3927C30.5517 49.6736 30.8688 47.6958 30.8688 45.4593C30.8688 43.2394 30.56 41.2867 29.9425 39.6009C29.3249 37.9152 28.4153 36.5967 27.2136 35.6453C26.0119 34.694 24.5348 34.2183 22.7823 34.2183C21.0465 34.2183 19.5778 34.6773 18.3761 35.5953C17.1911 36.5132 16.2814 37.8151 15.6472 39.5008C15.013 41.1865 14.6958 43.1727 14.6958 45.4593ZM58.5622 65.4126C56.1087 65.4126 53.9223 64.9869 52.0029 64.1357C50.0835 63.2678 48.5647 61.991 47.4464 60.3053C46.3449 58.6029 45.7941 56.4832 45.7941 53.9463C45.7941 51.8099 46.1863 50.0157 46.9708 48.5637C47.7552 47.1116 48.8234 45.9433 50.1753 45.0587C51.5272 44.1741 53.0627 43.5065 54.7819 43.0558C56.5177 42.6052 58.3369 42.2881 60.2396 42.1045C62.4761 41.8708 64.2787 41.6539 65.6473 41.4536C67.0159 41.2366 68.009 40.9195 68.6265 40.5022C69.244 40.085 69.5528 39.4674 69.5528 38.6496V38.4994C69.5528 36.9138 69.0521 35.6871 68.0507 34.8192C67.0659 33.9513 65.664 33.5173 63.8447 33.5173C61.9253 33.5173 60.3982 33.9429 59.2632 34.7941C58.1283 35.6286 57.3772 36.6801 57.01 37.9486L47.146 37.1475C47.6467 34.8108 48.6315 32.7913 50.1002 31.0889C51.569 29.3698 53.4633 28.0512 55.7833 27.1333C58.1199 26.1986 60.8238 25.7313 63.8948 25.7313C66.0311 25.7313 68.0757 25.9816 70.0285 26.4823C71.9979 26.983 73.7421 27.7591 75.2609 28.8106C76.7964 29.8621 78.0065 31.214 78.8911 32.8664C79.7756 34.502 80.2179 36.4632 80.2179 38.7497V64.6865H70.1036V59.354H69.8032C69.1856 60.5557 68.3594 61.6155 67.3246 62.5335C66.2898 63.4347 65.0464 64.1441 63.5944 64.6615C62.1423 65.1622 60.4649 65.4126 58.5622 65.4126ZM61.6166 58.0521C63.1854 58.0521 64.5707 57.7433 65.7724 57.1258C66.9741 56.4916 67.9172 55.6404 68.6015 54.5722C69.2858 53.504 69.6279 52.2939 69.6279 50.942V46.8612C69.2941 47.0782 68.8351 47.2785 68.251 47.4621C67.6835 47.629 67.0409 47.7876 66.3232 47.9378C65.6055 48.0713 64.8879 48.1965 64.1702 48.3133C63.4525 48.4134 62.8016 48.5052 62.2174 48.5887C60.9656 48.7723 59.8724 49.0644 58.9377 49.4649C58.0031 49.8655 57.2771 50.4079 56.7597 51.0922C56.2423 51.7599 55.9836 52.5944 55.9836 53.5958C55.9836 55.0479 56.5093 56.1578 57.5608 56.9255C58.629 57.6766 59.9809 58.0521 61.6166 58.0521ZM97.8846 13.4138V64.6865H87.2195V13.4138H97.8846Z"/>
<path fill="#0F172B" d="M7.24858 8.86905L7.24325 6.54128H7.5522L10.4925 3.25471H12.7457L9.12891 7.28169H8.7294L7.24858 8.86905ZM5.49077 11.4365V0.527432H7.41903V11.4365H5.49077ZM10.6257 11.4365L7.96236 7.71316L9.26207 6.35485L12.9322 11.4365H10.6257ZM17.7878 11.5963C16.9888 11.5963 16.2963 11.4205 15.7104 11.069C15.1244 10.7174 14.6699 10.2256 14.3467 9.59348C14.0271 8.96138 13.8673 8.22275 13.8673 7.37757C13.8673 6.5324 14.0271 5.79199 14.3467 5.15634C14.6699 4.52069 15.1244 4.02708 15.7104 3.67551C16.2963 3.32395 16.9888 3.14817 17.7878 3.14817C18.5868 3.14817 19.2793 3.32395 19.8652 3.67551C20.4511 4.02708 20.9039 4.52069 21.2235 5.15634C21.5467 5.79199 21.7082 6.5324 21.7082 7.37757C21.7082 8.22275 21.5467 8.96138 21.2235 9.59348C20.9039 10.2256 20.4511 10.7174 19.8652 11.069C19.2793 11.4205 18.5868 11.5963 17.7878 11.5963ZM17.7984 10.0516C18.2317 10.0516 18.5939 9.93262 18.8851 9.69469C19.1763 9.45321 19.3929 9.13006 19.5349 8.72523C19.6805 8.3204 19.7533 7.86941 19.7533 7.37225C19.7533 6.87154 19.6805 6.41877 19.5349 6.01394C19.3929 5.60556 19.1763 5.28063 18.8851 5.03915C18.5939 4.79767 18.2317 4.67694 17.7984 4.67694C17.3545 4.67694 16.9852 4.79767 16.6905 5.03915C16.3993 5.28063 16.1809 5.60556 16.0353 6.01394C15.8933 6.41877 15.8222 6.87154 15.8222 7.37225C15.8222 7.86941 15.8933 8.3204 16.0353 8.72523C16.1809 9.13006 16.3993 9.45321 16.6905 9.69469C16.9852 9.93262 17.3545 10.0516 17.7984 10.0516ZM23.9551 11.4365V0.527432H25.8834V4.60769H25.9633C26.0627 4.40882 26.203 4.19753 26.3841 3.97381C26.5652 3.74654 26.8102 3.553 27.1192 3.3932C27.4281 3.22985 27.8223 3.14817 28.3017 3.14817C28.9338 3.14817 29.5037 3.30975 30.0116 3.6329C30.5229 3.9525 30.9278 4.42658 31.226 5.05513C31.5279 5.68013 31.6788 6.44718 31.6788 7.35627C31.6788 8.25471 31.5314 9.0182 31.2367 9.64675C30.942 10.2753 30.5407 10.7547 30.0329 11.085C29.5251 11.4152 28.9498 11.5803 28.307 11.5803C27.8383 11.5803 27.4494 11.5022 27.1405 11.346C26.8315 11.1897 26.5829 11.0015 26.3947 10.7813C26.2101 10.5576 26.0662 10.3463 25.9633 10.1475H25.8514V11.4365H23.9551ZM25.8461 7.34561C25.8461 7.87473 25.9206 8.33816 26.0698 8.73588C26.2225 9.13361 26.4409 9.44434 26.725 9.66806C27.0126 9.88823 27.3606 9.99831 27.769 9.99831C28.1952 9.99831 28.552 9.88468 28.8397 9.6574C29.1273 9.42658 29.3439 9.1123 29.4895 8.71458C29.6387 8.3133 29.7133 7.85698 29.7133 7.34561C29.7133 6.8378 29.6405 6.38681 29.4949 5.99263C29.3493 5.59846 29.1327 5.28951 28.845 5.06578C28.5574 4.84206 28.1987 4.7302 27.769 4.7302C27.3571 4.7302 27.0073 4.83851 26.7197 5.05513C26.432 5.27175 26.2136 5.57537 26.0645 5.966C25.9189 6.35662 25.8461 6.81649 25.8461 7.34561ZM33.8431 11.4365V3.25471H35.7714V11.4365H33.8431ZM34.8126 2.09348C34.5072 2.09348 34.2444 1.99228 34.0242 1.78986C33.804 1.5839 33.694 1.33709 33.694 1.04945C33.694 0.758256 33.804 0.511452 34.0242 0.309037C34.2444 0.103071 34.5072 8.84533e-05 34.8126 8.84533e-05C35.1215 8.84533e-05 35.3843 0.103071 35.6009 0.309037C35.8211 0.511452 35.9312 0.758256 35.9312 1.04945C35.9312 1.33709 35.8211 1.5839 35.6009 1.78986C35.3843 1.99228 35.1215 2.09348 34.8126 2.09348Z"/>
</svg>