<svg width="20" height="20" viewBox="0 0 20 20" fill="none" xmlns="http://www.w3.org/2000/svg">
<path d="M15.8278 9.16309H4.16597C3.24588 9.16309 2.5 9.90897 2.5 10.8291V16.6599C2.5 17.58 3.24588 18.3259 4.16597 18.3259H15.8278C16.7478 18.3259 17.4937 17.58 17.4937 16.6599V10.8291C17.4937 9.90897 16.7478 9.16309 15.8278 9.16309Z" stroke="#90A1B9" stroke-width="1.66597" stroke-linecap="round" stroke-linejoin="round"/>
<path d="M5.82812 9.16288V5.83094C5.82813 4.72633 6.26693 3.66697 7.048 2.88589C7.82908 2.10482 8.88844 1.66602 9.99305 1.66602C11.0977 1.66602 12.157 2.10482 12.9381 2.88589C13.7192 3.66697 14.158 4.72633 14.158 5.83094V9.16288" stroke="#90A1B9" stroke-width="1.66597" stroke-linecap="round" stroke-linejoin="round"/>
</svg>
