<svg width="25" height="25" viewBox="0 0 25 25" fill="none" xmlns="http://www.w3.org/2000/svg">
<path fill-rule="evenodd" clip-rule="evenodd" d="M9.32292 8.59375H15.6771C16.3687 8.59375 16.9656 8.59375 17.4437 8.65833C17.9563 8.72708 18.4469 8.88229 18.8448 9.28021C19.2427 9.67813 19.3979 10.1698 19.4667 10.6812C19.5312 11.1594 19.5312 11.7563 19.5312 12.449V16.7177C19.5312 17.4104 19.5312 18.0073 19.4667 18.4854C19.3979 18.9979 19.2427 19.4885 18.8448 19.8865C18.4469 20.2844 17.9552 20.4396 17.4437 20.5083C16.9656 20.5729 16.3687 20.5729 15.6771 20.5729H9.32292C8.63125 20.5729 8.03438 20.5729 7.55625 20.5083C7.04479 20.4396 6.55312 20.2844 6.15521 19.8865C5.75729 19.4885 5.60208 18.9969 5.53333 18.4854C5.46875 18.0073 5.46875 17.4104 5.46875 16.7177V12.449C5.46875 11.7563 5.46875 11.1594 5.53333 10.6812C5.60208 10.1698 5.75729 9.67813 6.15521 9.28021C6.55312 8.88229 7.04479 8.72708 7.55625 8.65833C8.03438 8.59375 8.63125 8.59375 9.32396 8.59375M7.76562 10.2063C7.42708 10.2521 7.32083 10.326 7.26146 10.3854C7.20208 10.4448 7.12812 10.551 7.08229 10.8896C7.03437 11.251 7.03229 11.7417 7.03229 12.5V16.6667C7.03229 17.425 7.03437 17.9167 7.08229 18.2771C7.12812 18.6156 7.20208 18.7219 7.26146 18.7813C7.32083 18.8406 7.42708 18.9146 7.76562 18.9604C8.12708 19.0083 8.61771 19.0104 9.37604 19.0104H15.626C16.3844 19.0104 16.876 19.0083 17.2365 18.9604C17.575 18.9146 17.6812 18.8406 17.7406 18.7813C17.8 18.7219 17.874 18.6156 17.9198 18.2771C17.9677 17.9156 17.9698 17.425 17.9698 16.6667V12.5C17.9698 11.7417 17.9677 11.25 17.9198 10.8896C17.874 10.551 17.8 10.4448 17.7406 10.3854C17.6812 10.326 17.575 10.2521 17.2365 10.2063C16.875 10.1583 16.3844 10.1563 15.626 10.1563H9.375C8.61667 10.1563 8.12604 10.1583 7.76562 10.2063Z" fill="white"/>
<path d="M7.28906 5.46875C7.08186 5.46875 6.88315 5.55106 6.73664 5.69757C6.59012 5.84409 6.50781 6.0428 6.50781 6.25C6.50781 6.4572 6.59012 6.65591 6.73664 6.80243C6.88315 6.94894 7.08186 7.03125 7.28906 7.03125H12.4974C12.7046 7.03125 12.9033 6.94894 13.0498 6.80243C13.1963 6.65591 13.2786 6.4572 13.2786 6.25C13.2786 6.0428 13.1963 5.84409 13.0498 5.69757C12.9033 5.55106 12.7046 5.46875 12.4974 5.46875H7.28906Z" fill="white"/>
<path fill-rule="evenodd" clip-rule="evenodd" d="M11.4 1.30176H13.6C15.5146 1.30176 17.0312 1.30176 18.2177 1.46113C19.4385 1.62572 20.4271 1.97155 21.2073 2.75072C21.9865 3.53092 22.3323 4.51947 22.4969 5.7403C22.6562 6.9278 22.6562 8.44343 22.6562 10.358V14.6413C22.6562 16.5559 22.6562 18.0726 22.4969 19.2591C22.3323 20.4799 21.9865 21.4684 21.2073 22.2486C20.4271 23.0278 19.4385 23.3736 18.2177 23.5382C17.0302 23.6976 15.5146 23.6976 13.6 23.6976H11.4C9.48542 23.6976 7.96875 23.6976 6.78229 23.5382C5.56146 23.3736 4.57292 23.0278 3.79271 22.2486C3.01354 21.4684 2.66771 20.4799 2.50313 19.2591C2.34375 18.0716 2.34375 16.5559 2.34375 14.6413V10.358C2.34375 8.44343 2.34375 6.92676 2.50313 5.7403C2.66771 4.51947 3.01354 3.53092 3.79271 2.75072C4.57292 1.97155 5.56146 1.62572 6.78229 1.46113C7.96979 1.30176 9.48542 1.30176 11.4 1.30176ZM6.98958 3.01009C5.94167 3.15072 5.3375 3.4153 4.89583 3.85592C4.45625 4.29655 4.19167 4.90072 4.05104 5.94863C3.90729 7.01947 3.90521 8.42988 3.90521 10.4163V14.583C3.90521 16.5695 3.90729 17.9809 4.05104 19.0518C4.19167 20.0986 4.45625 20.7028 4.89688 21.1434C5.3375 21.5841 5.94167 21.8486 6.98958 21.9893C8.06042 22.133 9.47083 22.1351 11.4573 22.1351H13.5406C15.5271 22.1351 16.9385 22.133 18.0094 21.9893C19.0562 21.8486 19.6604 21.5841 20.101 21.1434C20.5417 20.7028 20.8062 20.0986 20.9469 19.0507C21.0906 17.9809 21.0927 16.5695 21.0927 14.583V10.4163C21.0927 8.42988 21.0906 7.01947 20.9469 5.94759C20.8062 4.90072 20.5417 4.29655 20.101 3.85592C19.6604 3.4153 19.0562 3.15072 18.0083 3.01009C16.9385 2.86634 15.5271 2.86426 13.5406 2.86426H11.4573C9.47083 2.86426 8.06146 2.86634 6.98958 3.01009Z" fill="white"/>
</svg>
