<svg width="25" height="25" viewBox="0 0 25 25" fill="none" xmlns="http://www.w3.org/2000/svg">
<path d="M19.0008 9.3498L18.3034 9.42896L18.3034 9.42896L19.0008 9.3498ZM19.4666 13.454L20.1641 13.3749L20.1641 13.3749L19.4666 13.454ZM5.53597 13.454L4.83856 13.3749L4.83856 13.3749L5.53597 13.454ZM6.00179 9.3498L6.6992 9.42896L6.00179 9.3498ZM4.63441 15.4924L4.09994 15.0375L4.09994 15.0375L4.63441 15.4924ZM20.3682 15.4924L19.8337 15.9474L19.8337 15.9474L20.3682 15.4924ZM14.8658 4.55655H14.1639C14.1639 4.85656 14.3546 5.12341 14.6385 5.22059L14.8658 4.55655ZM10.1368 4.55655L10.3641 5.22059C10.648 5.12341 10.8387 4.85656 10.8387 4.55655H10.1368ZM16.2836 21.0803C16.4196 20.7173 16.2356 20.3128 15.8726 20.1767C15.5096 20.0407 15.1051 20.2247 14.9691 20.5877L15.6263 20.834L16.2836 21.0803ZM10.0336 20.5877C9.89751 20.2247 9.49297 20.0407 9.12998 20.1767C8.767 20.3128 8.58302 20.7173 8.71906 21.0803L9.3763 20.834L10.0336 20.5877ZM18.5192 18.7507V18.0488H6.4834V18.7507V19.4525H18.5192V18.7507ZM19.0008 9.3498L18.3034 9.42896L18.7692 13.5332L19.4666 13.454L20.1641 13.3749L19.6982 9.27065L19.0008 9.3498ZM5.53597 13.454L6.23338 13.5332L6.6992 9.42896L6.00179 9.3498L5.30438 9.27065L4.83856 13.3749L5.53597 13.454ZM4.63441 15.4924L5.16888 15.9474C5.76055 15.2523 6.13294 14.4181 6.23338 13.5332L5.53597 13.454L4.83856 13.3749C4.7712 13.9684 4.52005 14.544 4.09994 15.0375L4.63441 15.4924ZM19.4666 13.454L18.7692 13.5332C18.8697 14.4181 19.2421 15.2523 19.8337 15.9474L20.3682 15.4924L20.9027 15.0375C20.4826 14.544 20.2314 13.9684 20.1641 13.3749L19.4666 13.454ZM6.4834 18.7507V18.0488C5.77365 18.0488 5.26404 17.6969 5.02661 17.2786C4.79611 16.8724 4.80037 16.3803 5.16888 15.9474L4.63441 15.4924L4.09994 15.0375C3.32572 15.947 3.30219 17.0841 3.80573 17.9714C4.30233 18.8465 5.28859 19.4525 6.4834 19.4525V18.7507ZM18.5192 18.7507V19.4525C19.714 19.4525 20.7003 18.8465 21.1969 17.9714C21.7004 17.0841 21.6769 15.947 20.9027 15.0375L20.3682 15.4924L19.8337 15.9474C20.2022 16.3803 20.2065 16.8724 19.976 17.2786C19.7386 17.6969 19.229 18.0488 18.5192 18.0488V18.7507ZM14.8658 4.55655H15.5677V4.44851H14.8658H14.1639V4.55655H14.8658ZM19.0008 9.3498L19.6982 9.27065C19.4114 6.74332 17.5357 4.72878 15.0932 3.89251L14.8658 4.55655L14.6385 5.22059C16.6593 5.9125 18.0879 7.53014 18.3034 9.42896L19.0008 9.3498ZM10.1368 4.55655H10.8387V4.44851H10.1368H9.43489V4.55655H10.1368ZM6.00179 9.3498L6.6992 9.42896C6.91471 7.53014 8.34329 5.9125 10.3641 5.22059L10.1368 4.55655L9.90942 3.8925C7.46693 4.72878 5.59122 6.74332 5.30438 9.27065L6.00179 9.3498ZM12.5013 2.08398V2.78587C13.4196 2.78587 14.1639 3.53026 14.1639 4.44851H14.8658H15.5677C15.5677 2.75498 14.1948 1.3821 12.5013 1.3821V2.08398ZM12.5013 2.08398V1.3821C10.8078 1.3821 9.43489 2.75498 9.43489 4.44851H10.1368H10.8387C10.8387 3.53026 11.5831 2.78587 12.5013 2.78587V2.08398ZM15.6263 20.834L14.9691 20.5877C14.6208 21.5168 13.6629 22.2154 12.5013 22.2154V22.9173V23.6192C14.2252 23.6192 15.722 22.5786 16.2836 21.0803L15.6263 20.834ZM12.5013 22.9173V22.2154C11.3397 22.2154 10.3818 21.5168 10.0336 20.5877L9.3763 20.834L8.71906 21.0803C9.28059 22.5786 10.7774 23.6192 12.5013 23.6192V22.9173Z" fill="white"/>
</svg>
