<svg width="20" height="20" viewBox="0 0 20 20" fill="none" xmlns="http://www.w3.org/2000/svg">
<path d="M13.33 17.4959V15.8296C13.33 14.9458 12.9789 14.0981 12.3539 13.4732C11.729 12.8482 10.8813 12.4971 9.99745 12.4971H4.99859C4.11474 12.4971 3.26708 12.8482 2.6421 13.4732C2.01713 14.0981 1.66602 14.9458 1.66602 15.8296V17.4959" stroke="white" stroke-width="1.66629" stroke-linecap="round" stroke-linejoin="round"/>
<path d="M7.49859 9.16417C9.33912 9.16417 10.8312 7.67213 10.8312 5.8316C10.8312 3.99107 9.33912 2.49902 7.49859 2.49902C5.65806 2.49902 4.16602 3.99107 4.16602 5.8316C4.16602 7.67213 5.65806 9.16417 7.49859 9.16417Z" stroke="white" stroke-width="1.66629" stroke-linecap="round" stroke-linejoin="round"/>
<path d="M14.1641 6.66504L18.3298 10.8308" stroke="white" stroke-width="1.66629" stroke-linecap="round" stroke-linejoin="round"/>
<path d="M18.3298 6.66504L14.1641 10.8308" stroke="white" stroke-width="1.66629" stroke-linecap="round" stroke-linejoin="round"/>
</svg>
