<svg width="16" height="16" viewBox="0 0 16 16" fill="none" xmlns="http://www.w3.org/2000/svg">
<g clip-path="url(#clip0_15_1170)">
<path d="M5.99557 11.3263H4.66313C3.77967 11.3263 2.93239 10.9753 2.30769 10.3506C1.68299 9.7259 1.33203 8.87862 1.33203 7.99516C1.33203 7.1117 1.68299 6.26442 2.30769 5.63972C2.93239 5.01502 3.77967 4.66406 4.66313 4.66406H5.99557" stroke="white" stroke-width="1.33244" stroke-linecap="round" stroke-linejoin="round"/>
<path d="M9.99414 4.66406H11.3266C12.21 4.66406 13.0573 5.01502 13.682 5.63972C14.3067 6.26442 14.6577 7.1117 14.6577 7.99516C14.6577 8.87862 14.3067 9.7259 13.682 10.3506C13.0573 10.9753 12.21 11.3263 11.3266 11.3263H9.99414" stroke="white" stroke-width="1.33244" stroke-linecap="round" stroke-linejoin="round"/>
<path d="M5.33008 7.99414H10.6598" stroke="white" stroke-width="1.33244" stroke-linecap="round" stroke-linejoin="round"/>
</g>
<defs>
<clipPath id="clip0_15_1170">
<rect width="15.9893" height="15.9893" fill="white"/>
</clipPath>
</defs>
</svg>
