<svg width="20" height="20" viewBox="0 0 20 20" fill="none" xmlns="http://www.w3.org/2000/svg">
<path d="M12.8947 10.7393L14.1569 17.8426C14.1711 17.9263 14.1593 18.0123 14.1233 18.089C14.0872 18.1658 14.0286 18.2298 13.9552 18.2724C13.8819 18.3149 13.7973 18.3341 13.7127 18.3273C13.6281 18.3205 13.5477 18.288 13.4821 18.2342L10.4994 15.9956C10.3554 15.888 10.1805 15.8299 10.0008 15.8299C9.82105 15.8299 9.64614 15.888 9.50215 15.9956L6.51449 18.2334C6.44894 18.2871 6.36858 18.3195 6.28413 18.3263C6.19967 18.3331 6.11515 18.3141 6.04182 18.2716C5.9685 18.2291 5.90986 18.1653 5.87374 18.0887C5.83762 18.0121 5.82572 17.9262 5.83965 17.8426L7.10103 10.7393" stroke="white" stroke-width="1.66629" stroke-linecap="round" stroke-linejoin="round"/>
<path d="M9.99691 11.6647C12.7577 11.6647 14.9958 9.42665 14.9958 6.66585C14.9958 3.90506 12.7577 1.66699 9.99691 1.66699C7.23611 1.66699 4.99805 3.90506 4.99805 6.66585C4.99805 9.42665 7.23611 11.6647 9.99691 11.6647Z" stroke="white" stroke-width="1.66629" stroke-linecap="round" stroke-linejoin="round"/>
</svg>
