<svg width="14" height="14" viewBox="0 0 14 14" fill="none" xmlns="http://www.w3.org/2000/svg">
<g clip-path="url(#clip0_17_6659)">
<path d="M8.74507 1.16602H3.49804C3.18879 1.16602 2.89222 1.28886 2.67355 1.50753C2.45488 1.7262 2.33203 2.02278 2.33203 2.33202V11.6601C2.33203 11.9693 2.45488 12.2659 2.67355 12.4846C2.89222 12.7032 3.18879 12.8261 3.49804 12.8261H10.4941C10.8033 12.8261 11.0999 12.7032 11.3186 12.4846C11.5372 12.2659 11.6601 11.9693 11.6601 11.6601V4.08103L8.74507 1.16602Z" stroke="#62748E" stroke-width="1.16601" stroke-linecap="round" stroke-linejoin="round"/>
<path d="M8.16211 1.16602V3.49803C8.16211 3.80727 8.28496 4.10385 8.50363 4.32252C8.72229 4.54119 9.01887 4.66404 9.32812 4.66404H11.6601" stroke="#62748E" stroke-width="1.16601" stroke-linecap="round" stroke-linejoin="round"/>
<path d="M5.83007 5.24707H4.66406" stroke="#62748E" stroke-width="1.16601" stroke-linecap="round" stroke-linejoin="round"/>
<path d="M9.32809 7.5791H4.66406" stroke="#62748E" stroke-width="1.16601" stroke-linecap="round" stroke-linejoin="round"/>
<path d="M9.32809 9.91113H4.66406" stroke="#62748E" stroke-width="1.16601" stroke-linecap="round" stroke-linejoin="round"/>
</g>
<defs>
<clipPath id="clip0_17_6659">
<rect width="13.9921" height="13.9921" fill="white"/>
</clipPath>
</defs>
</svg>
