<svg width="12" height="12" viewBox="0 0 12 12" fill="none" xmlns="http://www.w3.org/2000/svg">
<g clip-path="url(#clip0_18_8558)">
<path d="M9.9966 6.49691C9.9966 8.99585 8.24735 10.2453 6.16823 10.97C6.05936 11.0069 5.9411 11.0051 5.83337 10.965C3.74926 10.2453 2 8.99585 2 6.49691V2.9984C2 2.86585 2.05266 2.73872 2.14638 2.645C2.24011 2.55127 2.36724 2.49861 2.49979 2.49861C3.49936 2.49861 4.74883 1.89887 5.61846 1.13919C5.72435 1.04873 5.85904 0.999023 5.9983 0.999023C6.13757 0.999023 6.27226 1.04873 6.37814 1.13919C7.25277 1.90386 8.49724 2.49861 9.49682 2.49861C9.62937 2.49861 9.75649 2.55127 9.85022 2.645C9.94395 2.73872 9.9966 2.86585 9.9966 2.9984V6.49691Z" fill="white" stroke="white" stroke-width="0.999576" stroke-linecap="round" stroke-linejoin="round"/>
</g>
<defs>
<clipPath id="clip0_18_8558">
<rect width="11.9949" height="11.9949" fill="white"/>
</clipPath>
</defs>
</svg>
