<svg width="16" height="16" viewBox="0 0 16 16" fill="none" xmlns="http://www.w3.org/2000/svg">
<rect width="15.9893" height="15.9893" fill="#DAE9F8"/>
<path d="M5.99536 1.99902H2.66427C2.29632 1.99902 1.99805 2.2973 1.99805 2.66524V5.99634C1.99805 6.36428 2.29632 6.66256 2.66427 6.66256H5.99536C6.36331 6.66256 6.66158 6.36428 6.66158 5.99634V2.66524C6.66158 2.2973 6.36331 1.99902 5.99536 1.99902Z" stroke="#45556C" stroke-width="1.33244" stroke-linecap="round" stroke-linejoin="round"/>
<path d="M13.3235 1.99902H9.99239C9.62445 1.99902 9.32617 2.2973 9.32617 2.66524V5.99634C9.32617 6.36428 9.62445 6.66256 9.99239 6.66256H13.3235C13.6914 6.66256 13.9897 6.36428 13.9897 5.99634V2.66524C13.9897 2.2973 13.6914 1.99902 13.3235 1.99902Z" stroke="#45556C" stroke-width="1.33244" stroke-linecap="round" stroke-linejoin="round"/>
<path d="M13.3235 9.32715H9.99239C9.62445 9.32715 9.32617 9.62543 9.32617 9.99337V13.3245C9.32617 13.6924 9.62445 13.9907 9.99239 13.9907H13.3235C13.6914 13.9907 13.9897 13.6924 13.9897 13.3245V9.99337C13.9897 9.62543 13.6914 9.32715 13.3235 9.32715Z" stroke="#45556C" stroke-width="1.33244" stroke-linecap="round" stroke-linejoin="round"/>
<path d="M5.99536 9.32715H2.66427C2.29632 9.32715 1.99805 9.62543 1.99805 9.99337V13.3245C1.99805 13.6924 2.29632 13.9907 2.66427 13.9907H5.99536C6.36331 13.9907 6.66158 13.6924 6.66158 13.3245V9.99337C6.66158 9.62543 6.36331 9.32715 5.99536 9.32715Z" stroke="#45556C" stroke-width="1.33244" stroke-linecap="round" stroke-linejoin="round"/>
</svg>
