<svg width="12" height="12" viewBox="0 0 12 12" fill="none" xmlns="http://www.w3.org/2000/svg">
<g clip-path="url(#clip0_1134_1052)">
<path d="M0.375 5.62541C0.375621 5.02886 0.612872 4.45692 1.03469 4.0351C1.45652 3.61328 2.02845 3.37603 2.625 3.37541H4.49063C4.62703 3.36744 7.00406 3.20009 9.26766 1.30166C9.37697 1.20985 9.5102 1.15115 9.65172 1.13244C9.79323 1.11374 9.93715 1.13581 10.0666 1.19606C10.196 1.25631 10.3055 1.35223 10.3823 1.47257C10.459 1.59291 10.4999 1.73266 10.5 1.87541V9.37541C10.5 9.51819 10.4592 9.658 10.3825 9.77841C10.3057 9.89882 10.1962 9.99482 10.0668 10.0551C9.93734 10.1154 9.79339 10.1375 9.65183 10.1189C9.51028 10.1002 9.377 10.0415 9.26766 9.94963C7.49719 8.46463 5.65828 8.039 4.875 7.91994V9.40681C4.87516 9.5304 4.84477 9.65211 4.78654 9.76112C4.72832 9.87013 4.64406 9.96307 4.54125 10.0317L4.02563 10.3752C3.92596 10.4418 3.81181 10.4834 3.69273 10.4968C3.57365 10.5101 3.45311 10.4947 3.3412 10.4519C3.22929 10.4091 3.12928 10.3401 3.04952 10.2506C2.96977 10.1612 2.9126 10.054 2.88281 9.93791L2.33109 7.85853C1.78981 7.78651 1.2931 7.52039 0.933308 7.10964C0.573512 6.69889 0.375114 6.17146 0.375 5.62541ZM9.75 9.37212V1.87541C7.74328 3.55869 5.68922 3.98478 4.875 4.08978V7.15916C5.68828 7.26603 7.74187 7.69119 9.75 9.37212ZM3.60938 9.74712V9.75228L4.125 9.40869V7.87541H3.1125L3.60938 9.74712ZM2.625 7.12541H4.125V4.12541H2.625C2.22718 4.12541 1.84564 4.28344 1.56434 4.56475C1.28304 4.84605 1.125 5.22758 1.125 5.62541C1.125 6.02323 1.28304 6.40476 1.56434 6.68607C1.84564 6.96737 2.22718 7.12541 2.625 7.12541Z" fill="white"/>
</g>
<defs>
<clipPath id="clip0_1134_1052">
<rect width="12" height="12" fill="white" transform="matrix(-1 0 0 1 12 0)"/>
</clipPath>
</defs>
</svg>
