<svg width="16" height="16" viewBox="0 0 16 16" fill="none" xmlns="http://www.w3.org/2000/svg">
<g clip-path="url(#clip0_14_2849)">
<path d="M7.99598 1.99902H3.33244C2.97905 1.99902 2.64014 2.1394 2.39026 2.38929C2.14038 2.63917 2 2.97808 2 3.33146V12.6585C2 13.0119 2.14038 13.3508 2.39026 13.6007C2.64014 13.8506 2.97905 13.991 3.33244 13.991H12.6595C13.0129 13.991 13.3518 13.8506 13.6017 13.6007C13.8516 13.3508 13.992 13.0119 13.992 12.6585V7.995" stroke="white" stroke-width="1.33244" stroke-linecap="round" stroke-linejoin="round"/>
<path d="M12.2428 1.7489C12.5079 1.48386 12.8673 1.33496 13.2421 1.33496C13.617 1.33496 13.9764 1.48386 14.2415 1.7489C14.5065 2.01394 14.6554 2.3734 14.6554 2.74823C14.6554 3.12305 14.5065 3.48252 14.2415 3.74756L8.23684 9.75286C8.07865 9.91092 7.88321 10.0266 7.66855 10.0893L5.75451 10.6489C5.69718 10.6656 5.63641 10.6666 5.57856 10.6518C5.52072 10.637 5.46792 10.6069 5.42569 10.5647C5.38347 10.5225 5.35337 10.4697 5.33855 10.4118C5.32373 10.354 5.32473 10.2932 5.34145 10.2359L5.90107 8.32182C5.96405 8.10733 6.07998 7.91213 6.23818 7.7542L12.2428 1.7489Z" stroke="white" stroke-width="1.33244" stroke-linecap="round" stroke-linejoin="round"/>
</g>
<defs>
<clipPath id="clip0_14_2849">
<rect width="15.9893" height="15.9893" fill="white"/>
</clipPath>
</defs>
</svg>
