<svg width="24" height="24" viewBox="0 0 24 24" fill="none" xmlns="http://www.w3.org/2000/svg">
<g clip-path="url(#clip0_17_7481)">
<path d="M11.9941 19.4951H12.0041" stroke="#E7000B" stroke-width="1.99915" stroke-linecap="round" stroke-linejoin="round"/>
<path d="M8.49609 15.9258C9.43034 15.01 10.6864 14.4971 11.9946 14.4971C13.3028 14.4971 14.5589 15.01 15.4931 15.9258" stroke="#E7000B" stroke-width="1.99915" stroke-linecap="round" stroke-linejoin="round"/>
<path d="M4.99805 12.3578C6.41547 10.9683 8.21449 10.0323 10.1659 9.66895" stroke="#E7000B" stroke-width="1.99915" stroke-linecap="round" stroke-linejoin="round"/>
<path d="M18.9933 12.358C18.3912 11.7677 17.7169 11.256 16.9863 10.835" stroke="#E7000B" stroke-width="1.99915" stroke-linecap="round" stroke-linejoin="round"/>
<path d="M2 8.31961C3.23607 7.21416 4.64697 6.32141 6.17523 5.67773" stroke="#E7000B" stroke-width="1.99915" stroke-linecap="round" stroke-linejoin="round"/>
<path d="M21.9902 8.31976C20.4656 6.95615 18.6781 5.91892 16.7377 5.27188C14.7972 4.62484 12.7449 4.38168 10.707 4.55735" stroke="#E7000B" stroke-width="1.99915" stroke-linecap="round" stroke-linejoin="round"/>
<path d="M2 1.50293L21.9915 21.4944" stroke="#E7000B" stroke-width="1.99915" stroke-linecap="round" stroke-linejoin="round"/>
</g>
<defs>
<clipPath id="clip0_17_7481">
<rect width="23.9898" height="23.9898" fill="white"/>
</clipPath>
</defs>
</svg>
