<svg width="14" height="14" viewBox="0 0 14 14" fill="none" xmlns="http://www.w3.org/2000/svg">
<g clip-path="url(#clip0_14_2907)">
<path d="M7.57812 12.2432H12.2422" stroke="#62748E" stroke-width="1.16601" stroke-linecap="round" stroke-linejoin="round"/>
<path d="M12.3464 3.97165C12.6547 3.66349 12.8279 3.2455 12.8279 2.80964C12.828 2.37378 12.6549 1.95575 12.3467 1.64751C12.0386 1.33927 11.6206 1.16607 11.1847 1.16602C10.7489 1.16596 10.3308 1.33905 10.0226 1.64722L2.24182 9.42973C2.10646 9.5647 2.00636 9.73087 1.95032 9.91363L1.18017 12.4509C1.16511 12.5013 1.16397 12.5548 1.17688 12.6058C1.18979 12.6569 1.21627 12.7034 1.25351 12.7406C1.29075 12.7778 1.33736 12.8042 1.3884 12.817C1.43943 12.8299 1.49299 12.8286 1.54338 12.8135L4.0812 12.0439C4.26378 11.9884 4.42994 11.8889 4.56509 11.7542L12.3464 3.97165Z" stroke="#62748E" stroke-width="1.16601" stroke-linecap="round" stroke-linejoin="round"/>
</g>
<defs>
<clipPath id="clip0_14_2907">
<rect width="13.9921" height="13.9921" fill="white"/>
</clipPath>
</defs>
</svg>
