<svg width="24" height="24" viewBox="0 0 24 24" fill="none" xmlns="http://www.w3.org/2000/svg">
<path d="M9.99609 10.9951V16.9926" stroke="#45556C" stroke-width="1.99915" stroke-linecap="round" stroke-linejoin="round"/>
<path d="M13.9941 10.9951V16.9926" stroke="#45556C" stroke-width="1.99915" stroke-linecap="round" stroke-linejoin="round"/>
<path d="M18.9921 5.99756V19.9916C18.9921 20.5218 18.7815 21.0303 18.4066 21.4052C18.0317 21.7801 17.5232 21.9908 16.993 21.9908H6.9972C6.46699 21.9908 5.9585 21.7801 5.58358 21.4052C5.20867 21.0303 4.99805 20.5218 4.99805 19.9916V5.99756" stroke="#45556C" stroke-width="1.99915" stroke-linecap="round" stroke-linejoin="round"/>
<path d="M2.99805 5.99756H20.9904" stroke="#45556C" stroke-width="1.99915" stroke-linecap="round" stroke-linejoin="round"/>
<path d="M7.99609 5.99733V3.99817C7.99609 3.46797 8.20672 2.95947 8.58163 2.58456C8.95655 2.20965 9.46504 1.99902 9.99524 1.99902H13.9935C14.5238 1.99902 15.0322 2.20965 15.4072 2.58456C15.7821 2.95947 15.9927 3.46797 15.9927 3.99817V5.99733" stroke="#45556C" stroke-width="1.99915" stroke-linecap="round" stroke-linejoin="round"/>
</svg>
