<svg width="16" height="16" viewBox="0 0 16 16" fill="none" xmlns="http://www.w3.org/2000/svg">
<g clip-path="url(#clip0_494_617)">
<path d="M9.68893 14.4572C9.71425 14.5203 9.75828 14.5742 9.8151 14.6116C9.87192 14.6489 9.93882 14.668 10.0068 14.6663C10.0748 14.6646 10.1406 14.6421 10.1955 14.6018C10.2503 14.5616 10.2915 14.5055 10.3136 14.4412L14.6467 1.77501C14.6681 1.71594 14.6721 1.65202 14.6585 1.59072C14.6448 1.52942 14.614 1.47329 14.5696 1.42888C14.5252 1.38447 14.469 1.35363 14.4077 1.33996C14.3464 1.32629 14.2825 1.33036 14.2234 1.3517L1.55723 5.68487C1.49289 5.70693 1.43685 5.74814 1.39661 5.80298C1.35638 5.85781 1.33388 5.92364 1.33214 5.99163C1.3304 6.05962 1.3495 6.12651 1.38687 6.18333C1.42425 6.24016 1.47811 6.28419 1.54123 6.30951L6.8277 8.42943C6.99482 8.49634 7.14665 8.5964 7.27406 8.72358C7.40146 8.85075 7.50179 9.00241 7.569 9.16941L9.68893 14.4572Z" stroke="white" stroke-width="1.33328" stroke-linecap="round" stroke-linejoin="round"/>
<path d="M14.5704 1.43164L7.27734 8.72404" stroke="white" stroke-width="1.33328" stroke-linecap="round" stroke-linejoin="round"/>
</g>
<defs>
<clipPath id="clip0_494_617">
<rect width="15.9994" height="15.9994" fill="white"/>
</clipPath>
</defs>
</svg>
