<svg width="12" height="12" viewBox="0 0 12 12" fill="none" xmlns="http://www.w3.org/2000/svg">
<path d="M8.3501 9.48969H3.6501C3.4401 9.48969 3.2051 9.32469 3.1351 9.12469L1.0651 3.33469C0.7701 2.50469 1.1151 2.24969 1.8251 2.75969L3.7751 4.15469C4.1001 4.37969 4.4701 4.26469 4.6101 3.89969L5.4901 1.55469C5.7701 0.804688 6.2351 0.804688 6.5151 1.55469L7.3951 3.89969C7.5351 4.26469 7.9051 4.37969 8.2251 4.15469L10.0551 2.84969C10.8351 2.28969 11.2101 2.57469 10.8901 3.47969L8.8701 9.13469C8.7951 9.32469 8.5601 9.48969 8.3501 9.48969Z" fill="white" stroke="white" stroke-width="0.76" stroke-linecap="round" stroke-linejoin="round"/>
<path d="M3.25 11H8.75" stroke="white" stroke-width="0.76" stroke-linecap="round" stroke-linejoin="round"/>
</svg>
