<svg width="18" height="18" viewBox="0 0 18 18" fill="none" xmlns="http://www.w3.org/2000/svg">
<path d="M10.8974 7.10244L7.10244 10.8974C6.61494 10.4099 6.31494 9.74244 6.31494 8.99994C6.31494 7.51494 7.51494 6.31494 8.99994 6.31494C9.74244 6.31494 10.4099 6.61494 10.8974 7.10244Z" stroke="#314158" stroke-linecap="round" stroke-linejoin="round"/>
<path d="M13.3649 4.32736C12.0524 3.33736 10.5524 2.79736 8.99988 2.79736C6.35238 2.79736 3.88488 4.35736 2.16738 7.05736C1.49238 8.11486 1.49238 9.89236 2.16738 10.9499C2.75988 11.8799 3.44988 12.6824 4.19988 13.3274" stroke="#314158" stroke-linecap="round" stroke-linejoin="round"/>
<path d="M6.31494 14.6473C7.16994 15.0073 8.07744 15.2023 8.99994 15.2023C11.6474 15.2023 14.1149 13.6423 15.8324 10.9423C16.5074 9.88477 16.5074 8.10727 15.8324 7.04977C15.5849 6.65977 15.3149 6.29227 15.0374 5.94727" stroke="#314158" stroke-linecap="round" stroke-linejoin="round"/>
<path d="M11.6326 9.5249C11.4376 10.5824 10.5751 11.4449 9.51758 11.6399" stroke="#314158" stroke-linecap="round" stroke-linejoin="round"/>
<path d="M7.1025 10.8975L1.5 16.5" stroke="#314158" stroke-linecap="round" stroke-linejoin="round"/>
<path d="M16.5 1.5L10.8975 7.1025" stroke="#314158" stroke-linecap="round" stroke-linejoin="round"/>
</svg>
