<svg width="18" height="18" viewBox="0 0 18 18" fill="none" xmlns="http://www.w3.org/2000/svg">
<path d="M16.5 15.0525V9.13499C16.5 4.93499 13.125 1.5 9 1.5C4.875 1.5 1.5 4.93499 1.5 9.13499V15.0525C1.5 15.9975 2.06249 16.2525 2.75249 15.6225L3.50249 14.94C3.77999 14.685 4.23001 14.685 4.50751 14.94L6.00751 16.3125C6.28501 16.5675 6.73498 16.5675 7.01248 16.3125L8.51248 14.94C8.78998 14.685 9.24 14.685 9.5175 14.94L11.0175 16.3125C11.295 16.5675 11.745 16.5675 12.0225 16.3125L13.5225 14.94C13.8 14.685 14.25 14.685 14.5275 14.94L15.2775 15.6225C15.9375 16.2525 16.5 15.9975 16.5 15.0525Z" stroke="#314158" stroke-linecap="round" stroke-linejoin="round"/>
<path d="M6 10.5C7.7775 11.835 10.2225 11.835 12 10.5" stroke="#314158" stroke-linecap="round" stroke-linejoin="round"/>
<path d="M9 8.25C9.82843 8.25 10.5 7.57843 10.5 6.75C10.5 5.92157 9.82843 5.25 9 5.25C8.17157 5.25 7.5 5.92157 7.5 6.75C7.5 7.57843 8.17157 8.25 9 8.25Z" stroke="#314158" stroke-linecap="round" stroke-linejoin="round"/>
</svg>
