<svg width="16" height="16" viewBox="0 0 16 16" fill="none" xmlns="http://www.w3.org/2000/svg">
<g clip-path="url(#clip0_1226_1128)">
<path d="M9.32467 2.66504C9.56503 2.66504 9.80093 2.73005 10.0074 2.8532C10.2138 2.97635 10.383 3.15305 10.4972 3.36457L10.821 3.96417C10.9352 4.17569 11.1044 4.35238 11.3109 4.47553C11.5173 4.59868 11.7532 4.6637 11.9935 4.6637H13.324C13.6774 4.6637 14.0163 4.80408 14.2662 5.05396C14.516 5.30384 14.6564 5.64275 14.6564 5.99614V11.9921C14.6564 12.3455 14.516 12.6844 14.2662 12.9343C14.0163 13.1842 13.6774 13.3246 13.324 13.3246H2.66447C2.31109 13.3246 1.97217 13.1842 1.72229 12.9343C1.47241 12.6844 1.33203 12.3455 1.33203 11.9921V5.99614C1.33203 5.64275 1.47241 5.30384 1.72229 5.05396C1.97217 4.80408 2.31109 4.6637 2.66447 4.6637H3.99491C4.23503 4.66371 4.47069 4.59884 4.67697 4.47593C4.88326 4.35303 5.05249 4.17667 5.16679 3.9655L5.49257 3.36324C5.60687 3.15207 5.77611 2.9757 5.98239 2.8528C6.18867 2.7299 6.42433 2.66503 6.66445 2.66504H9.32467Z" stroke="white" stroke-width="1.33244" stroke-linecap="round" stroke-linejoin="round"/>
<path d="M7.99475 10.6594C9.09858 10.6594 9.99341 9.7646 9.99341 8.66077C9.99341 7.55694 9.09858 6.66211 7.99475 6.66211C6.89092 6.66211 5.99609 7.55694 5.99609 8.66077C5.99609 9.7646 6.89092 10.6594 7.99475 10.6594Z" stroke="white" stroke-width="1.33244" stroke-linecap="round" stroke-linejoin="round"/>
</g>
<defs>
<clipPath id="clip0_1226_1128">
<rect width="15.9893" height="15.9893" fill="white"/>
</clipPath>
</defs>
</svg>
