<svg width="18" height="18" viewBox="0 0 18 18" fill="none" xmlns="http://www.w3.org/2000/svg">
<path d="M0.5625 8.43762C0.563431 7.5428 0.919309 6.6849 1.55204 6.05216C2.18478 5.41943 3.04268 5.06355 3.9375 5.06262H6.73594C6.94055 5.05067 10.5061 4.79965 13.9015 1.952C14.0654 1.81429 14.2653 1.72624 14.4776 1.69818C14.6898 1.67012 14.9057 1.70322 15.0998 1.7936C15.2939 1.88397 15.4582 2.02786 15.5734 2.20837C15.6886 2.38888 15.7498 2.5985 15.75 2.81262V14.0626C15.75 14.2768 15.6888 14.4865 15.5737 14.6671C15.4586 14.8477 15.2943 14.9917 15.1002 15.0822C14.906 15.1727 14.6901 15.2058 14.4778 15.1778C14.2654 15.1498 14.0655 15.0617 13.9015 14.9239C11.2458 12.6964 8.48742 12.058 7.3125 11.8794V14.1097C7.31274 14.2951 7.26716 14.4777 7.17982 14.6412C7.09248 14.8047 6.96608 14.9441 6.81188 15.047L6.03844 15.5624C5.88894 15.6622 5.71772 15.7247 5.5391 15.7447C5.36048 15.7647 5.17967 15.7416 5.0118 15.6774C4.84394 15.6131 4.69391 15.5096 4.57428 15.3755C4.45465 15.2413 4.36891 15.0805 4.32422 14.9064L3.49664 11.7873C2.68472 11.6793 1.93966 11.2801 1.39996 10.664C0.860269 10.0478 0.562672 9.25669 0.5625 8.43762ZM14.625 14.0577V2.81262C11.6149 5.33754 8.53383 5.97668 7.3125 6.13418V10.7382C8.53242 10.8986 11.6128 11.5363 14.625 14.0577ZM5.41406 14.6202V14.6279L6.1875 14.1125V11.8126H4.66875L5.41406 14.6202ZM3.9375 10.6876H6.1875V6.18762H3.9375C3.34076 6.18762 2.76847 6.42467 2.34651 6.84663C1.92455 7.26859 1.6875 7.84088 1.6875 8.43762C1.6875 9.03436 1.92455 9.60665 2.34651 10.0286C2.76847 10.4506 3.34076 10.6876 3.9375 10.6876Z" fill="#314158"/>
</svg>
