<svg width="25" height="25" viewBox="0 0 25 25" fill="none" xmlns="http://www.w3.org/2000/svg">
<g clip-path="url(#clip0_1226_1418)">
<path d="M18.9996 9.34932L18.3022 9.42847L18.9996 9.34932ZM19.4654 13.4536L20.1628 13.3744L19.4654 13.4536ZM5.53475 13.4536L4.83733 13.3744L5.53475 13.4536ZM6.00057 9.34932L6.69798 9.42847L6.00057 9.34932ZM4.63319 15.492L4.09872 15.037L4.09872 15.037L4.63319 15.492ZM20.367 15.492L19.8325 15.9469L20.367 15.492ZM14.8646 4.55606L14.1627 4.55606C14.1627 4.85608 14.3534 5.12292 14.6373 5.2201L14.8646 4.55606ZM10.1356 4.55606L10.3629 5.2201C10.6468 5.12292 10.8374 4.85608 10.8374 4.55606L10.1356 4.55606ZM16.2823 21.0798C16.4184 20.7168 16.2344 20.3123 15.8714 20.1763C15.5084 20.0402 15.1039 20.2242 14.9678 20.5872L15.6251 20.8335L16.2823 21.0798ZM10.0323 20.5872C9.89629 20.2242 9.49175 20.0402 9.12876 20.1763C8.76578 20.3123 8.5818 20.7168 8.71784 21.0798L9.37508 20.8335L10.0323 20.5872ZM18.518 18.7502L18.518 18.0483L6.48218 18.0483L6.48218 18.7502L6.48218 19.4521L18.518 19.4521L18.518 18.7502ZM18.9996 9.34932L18.3022 9.42847L18.768 13.5327L19.4654 13.4536L20.1628 13.3744L19.697 9.27016L18.9996 9.34932ZM5.53475 13.4536L6.23216 13.5327L6.69798 9.42847L6.00057 9.34932L5.30315 9.27016L4.83733 13.3744L5.53475 13.4536ZM4.63319 15.492L5.16766 15.9469C5.75933 15.2518 6.13172 14.4176 6.23216 13.5327L5.53475 13.4536L4.83733 13.3744C4.76997 13.9679 4.51883 14.5435 4.09872 15.037L4.63319 15.492ZM19.4654 13.4536L18.768 13.5327C18.8684 14.4176 19.2408 15.2518 19.8325 15.9469L20.367 15.492L20.9014 15.037C20.4813 14.5435 20.2302 13.9679 20.1628 13.3744L19.4654 13.4536ZM6.48218 18.7502L6.48218 18.0483C5.77242 18.0483 5.26282 17.6965 5.02539 17.2781C4.79489 16.8719 4.79915 16.3798 5.16766 15.9469L4.63319 15.492L4.09872 15.037C3.3245 15.9465 3.30097 17.0836 3.8045 17.9709C4.30111 18.846 5.28737 19.4521 6.48218 19.4521L6.48218 18.7502ZM18.518 18.7502L18.518 19.4521C19.7128 19.4521 20.6991 18.846 21.1957 17.9709C21.6992 17.0836 21.6757 15.9465 20.9014 15.037L20.367 15.492L19.8325 15.9469C20.201 16.3798 20.2053 16.8719 19.9748 17.2781C19.7373 17.6965 19.2277 18.0483 18.518 18.0483L18.518 18.7502ZM14.8646 4.55606L15.5665 4.55606L15.5665 4.44802L14.8646 4.44802L14.1627 4.44802L14.1627 4.55606L14.8646 4.55606ZM18.9996 9.34932L19.697 9.27016C19.4102 6.74283 17.5345 4.72829 15.092 3.89202L14.8646 4.55606L14.6373 5.2201C16.6581 5.91202 18.0867 7.52965 18.3022 9.42847L18.9996 9.34932ZM10.1356 4.55606L10.8374 4.55606L10.8374 4.44802L10.1356 4.44802L9.43367 4.44802L9.43367 4.55606L10.1356 4.55606ZM6.00057 9.34932L6.69798 9.42847C6.91349 7.52965 8.34207 5.91202 10.3629 5.2201L10.1356 4.55606L9.9082 3.89202C7.46571 4.72829 5.59 6.74283 5.30315 9.27016L6.00057 9.34932ZM12.5001 2.0835L12.5001 2.78538C13.4183 2.78538 14.1627 3.52977 14.1627 4.44802L14.8646 4.44802L15.5665 4.44802C15.5665 2.75449 14.1936 1.38161 12.5001 1.38161L12.5001 2.0835ZM12.5001 2.0835L12.5001 1.38161C10.8065 1.38161 9.43367 2.75449 9.43367 4.44802L10.1356 4.44802L10.8374 4.44802C10.8374 3.52977 11.5818 2.78538 12.5001 2.78538L12.5001 2.0835ZM15.6251 20.8335L14.9678 20.5872C14.6196 21.5163 13.6616 22.2149 12.5001 22.2149L12.5001 22.9168L12.5001 23.6187C14.224 23.6187 15.7208 22.5781 16.2823 21.0798L15.6251 20.8335ZM12.5001 22.9168L12.5001 22.2149C11.3385 22.2149 10.3806 21.5163 10.0323 20.5872L9.37508 20.8335L8.71784 21.0798C9.27937 22.5781 10.7762 23.6187 12.5001 23.6187L12.5001 22.9168Z" fill="black"/>
<circle cx="20.8334" cy="4.16667" r="5.10252" fill="#FF0000" stroke="white" stroke-width="1.8717"/>
</g>
<defs>
<clipPath id="clip0_1226_1418">
<rect width="25" height="25" fill="white"/>
</clipPath>
</defs>
</svg>
