<svg width="25" height="25" viewBox="0 0 25 25" fill="none" xmlns="http://www.w3.org/2000/svg">
<path fill-rule="evenodd" clip-rule="evenodd" d="M9.32292 8.59375H15.6771C16.3687 8.59375 16.9656 8.59375 17.4437 8.65833C17.9563 8.72708 18.4469 8.88229 18.8448 9.28021C19.2427 9.67813 19.3979 10.1698 19.4667 10.6812C19.5312 11.1594 19.5312 11.7563 19.5312 12.449V16.7177C19.5312 17.4104 19.5312 18.0073 19.4667 18.4854C19.3979 18.9979 19.2427 19.4885 18.8448 19.8865C18.4469 20.2844 17.9552 20.4396 17.4437 20.5083C16.9656 20.5729 16.3687 20.5729 15.6771 20.5729H9.32292C8.63125 20.5729 8.03438 20.5729 7.55625 20.5083C7.04479 20.4396 6.55312 20.2844 6.15521 19.8865C5.75729 19.4885 5.60208 18.9969 5.53333 18.4854C5.46875 18.0073 5.46875 17.4104 5.46875 16.7177V12.449C5.46875 11.7563 5.46875 11.1594 5.53333 10.6812C5.60208 10.1698 5.75729 9.67813 6.15521 9.28021C6.55312 8.88229 7.04479 8.72708 7.55625 8.65833C8.03438 8.59375 8.63125 8.59375 9.32396 8.59375M7.76562 10.2063C7.42708 10.2521 7.32083 10.326 7.26146 10.3854C7.20208 10.4448 7.12812 10.551 7.08229 10.8896C7.03437 11.251 7.03229 11.7417 7.03229 12.5V16.6667C7.03229 17.425 7.03437 17.9167 7.08229 18.2771C7.12812 18.6156 7.20208 18.7219 7.26146 18.7813C7.32083 18.8406 7.42708 18.9146 7.76562 18.9604C8.12708 19.0083 8.61771 19.0104 9.37604 19.0104H15.626C16.3844 19.0104 16.876 19.0083 17.2365 18.9604C17.575 18.9146 17.6812 18.8406 17.7406 18.7813C17.8 18.7219 17.874 18.6156 17.9198 18.2771C17.9677 17.9156 17.9698 17.425 17.9698 16.6667V12.5C17.9698 11.7417 17.9677 11.25 17.9198 10.8896C17.874 10.551 17.8 10.4448 17.7406 10.3854C17.6812 10.326 17.575 10.2521 17.2365 10.2063C16.875 10.1583 16.3844 10.1563 15.626 10.1563H9.375C8.61667 10.1563 8.12604 10.1583 7.76562 10.2063Z" fill="black"/>
<path d="M7.29175 5.46875C7.08455 5.46875 6.88583 5.55106 6.73932 5.69757C6.59281 5.84409 6.5105 6.0428 6.5105 6.25C6.5105 6.4572 6.59281 6.65591 6.73932 6.80243C6.88583 6.94894 7.08455 7.03125 7.29175 7.03125H12.5001C12.7073 7.03125 12.906 6.94894 13.0525 6.80243C13.199 6.65591 13.2813 6.4572 13.2813 6.25C13.2813 6.0428 13.199 5.84409 13.0525 5.69757C12.906 5.55106 12.7073 5.46875 12.5001 5.46875H7.29175Z" fill="black"/>
<path fill-rule="evenodd" clip-rule="evenodd" d="M11.4 1.30225H13.6C15.5146 1.30225 17.0312 1.30225 18.2177 1.46162C19.4385 1.6262 20.4271 1.97204 21.2073 2.7512C21.9865 3.53141 22.3323 4.51995 22.4969 5.74079C22.6562 6.92829 22.6562 8.44391 22.6562 10.3585V14.6418C22.6562 16.5564 22.6562 18.0731 22.4969 19.2595C22.3323 20.4804 21.9865 21.4689 21.2073 22.2491C20.4271 23.0283 19.4385 23.3741 18.2177 23.5387C17.0302 23.6981 15.5146 23.6981 13.6 23.6981H11.4C9.48542 23.6981 7.96875 23.6981 6.78229 23.5387C5.56146 23.3741 4.57292 23.0283 3.79271 22.2491C3.01354 21.4689 2.66771 20.4804 2.50313 19.2595C2.34375 18.072 2.34375 16.5564 2.34375 14.6418V10.3585C2.34375 8.44391 2.34375 6.92725 2.50313 5.74079C2.66771 4.51995 3.01354 3.53141 3.79271 2.7512C4.57292 1.97204 5.56146 1.6262 6.78229 1.46162C7.96979 1.30225 9.48542 1.30225 11.4 1.30225ZM6.98958 3.01058C5.94167 3.1512 5.3375 3.41579 4.89583 3.85641C4.45625 4.29704 4.19167 4.9012 4.05104 5.94912C3.90729 7.01995 3.90521 8.43037 3.90521 10.4168V14.5835C3.90521 16.57 3.90729 17.9814 4.05104 19.0522C4.19167 20.0991 4.45625 20.7033 4.89688 21.1439C5.3375 21.5845 5.94167 21.8491 6.98958 21.9897C8.06042 22.1335 9.47083 22.1356 11.4573 22.1356H13.5406C15.5271 22.1356 16.9385 22.1335 18.0094 21.9897C19.0562 21.8491 19.6604 21.5845 20.101 21.1439C20.5417 20.7033 20.8062 20.0991 20.9469 19.0512C21.0906 17.9814 21.0927 16.57 21.0927 14.5835V10.4168C21.0927 8.43037 21.0906 7.01996 20.9469 5.94808C20.8062 4.9012 20.5417 4.29704 20.101 3.85641C19.6604 3.41579 19.0562 3.1512 18.0083 3.01058C16.9385 2.86683 15.5271 2.86475 13.5406 2.86475H11.4573C9.47083 2.86475 8.06146 2.86683 6.98958 3.01058Z" fill="black"/>
</svg>
