<svg width="53" height="53" viewBox="0 0 53 53" fill="none" xmlns="http://www.w3.org/2000/svg">
<g filter="url(#filter0_dd_858_1346)">
<path d="M3 25.4994C3 12.521 13.521 2 26.4994 2C39.4777 2 49.9988 12.521 49.9988 25.4994C49.9988 38.4777 39.4777 48.9988 26.4994 48.9988C13.521 48.9988 3 38.4777 3 25.4994Z" fill="#314158" shape-rendering="crispEdges"/>
<path d="M26.4935 33.8318C31.0949 33.8318 34.825 30.1017 34.825 25.5004C34.825 20.8991 31.0949 17.1689 26.4935 17.1689C21.8922 17.1689 18.1621 20.8991 18.1621 25.5004C18.1621 30.1017 21.8922 33.8318 26.4935 33.8318Z" stroke="white" stroke-width="1.66629" stroke-linecap="round" stroke-linejoin="round"/>
<path d="M26.4941 22.167V25.4996" stroke="white" stroke-width="1.66629" stroke-linecap="round" stroke-linejoin="round"/>
<path d="M26.4941 28.832H26.5025" stroke="white" stroke-width="1.66629" stroke-linecap="round" stroke-linejoin="round"/>
</g>
<defs>
<filter id="filter0_dd_858_1346" x="0" y="0" width="52.998" height="52.999" filterUnits="userSpaceOnUse" color-interpolation-filters="sRGB">
<feFlood flood-opacity="0" result="BackgroundImageFix"/>
<feColorMatrix in="SourceAlpha" type="matrix" values="0 0 0 0 0 0 0 0 0 0 0 0 0 0 0 0 0 0 127 0" result="hardAlpha"/>
<feMorphology radius="1" operator="erode" in="SourceAlpha" result="effect1_dropShadow_858_1346"/>
<feOffset dy="1"/>
<feGaussianBlur stdDeviation="1"/>
<feComposite in2="hardAlpha" operator="out"/>
<feColorMatrix type="matrix" values="0 0 0 0 0 0 0 0 0 0 0 0 0 0 0 0 0 0 0.1 0"/>
<feBlend mode="normal" in2="BackgroundImageFix" result="effect1_dropShadow_858_1346"/>
<feColorMatrix in="SourceAlpha" type="matrix" values="0 0 0 0 0 0 0 0 0 0 0 0 0 0 0 0 0 0 127 0" result="hardAlpha"/>
<feOffset dy="1"/>
<feGaussianBlur stdDeviation="1.5"/>
<feComposite in2="hardAlpha" operator="out"/>
<feColorMatrix type="matrix" values="0 0 0 0 0 0 0 0 0 0 0 0 0 0 0 0 0 0 0.1 0"/>
<feBlend mode="normal" in2="effect1_dropShadow_858_1346" result="effect2_dropShadow_858_1346"/>
<feBlend mode="normal" in="SourceGraphic" in2="effect2_dropShadow_858_1346" result="shape"/>
</filter>
</defs>
</svg>
