<svg width="53" height="53" viewBox="0 0 53 53" fill="none" xmlns="http://www.w3.org/2000/svg">
<g filter="url(#filter0_dd_858_1412)">
<path d="M3 25.4994C3 12.521 13.521 2 26.4994 2C39.4777 2 49.9988 12.521 49.9988 25.4994C49.9988 38.4777 39.4777 48.9988 26.4994 48.9988C13.521 48.9988 3 38.4777 3 25.4994Z" fill="#C10007" shape-rendering="crispEdges"/>
<path d="M29.8261 32.9979V31.3316C29.8261 30.4477 29.475 29.6001 28.85 28.9751C28.2251 28.3501 27.3774 27.999 26.4935 27.999H21.4947C20.6108 27.999 19.7632 28.3501 19.1382 28.9751C18.5132 29.6001 18.1621 30.4477 18.1621 31.3316V32.9979" stroke="white" stroke-width="1.66629" stroke-linecap="round" stroke-linejoin="round"/>
<path d="M23.9947 24.6661C25.8352 24.6661 27.3273 23.1741 27.3273 21.3336C27.3273 19.493 25.8352 18.001 23.9947 18.001C22.1542 18.001 20.6621 19.493 20.6621 21.3336C20.6621 23.1741 22.1542 24.6661 23.9947 24.6661Z" stroke="white" stroke-width="1.66629" stroke-linecap="round" stroke-linejoin="round"/>
<path d="M30.6602 22.167L34.8259 26.3327" stroke="white" stroke-width="1.66629" stroke-linecap="round" stroke-linejoin="round"/>
<path d="M34.8259 22.167L30.6602 26.3327" stroke="white" stroke-width="1.66629" stroke-linecap="round" stroke-linejoin="round"/>
</g>
<defs>
<filter id="filter0_dd_858_1412" x="0" y="0" width="52.998" height="52.999" filterUnits="userSpaceOnUse" color-interpolation-filters="sRGB">
<feFlood flood-opacity="0" result="BackgroundImageFix"/>
<feColorMatrix in="SourceAlpha" type="matrix" values="0 0 0 0 0 0 0 0 0 0 0 0 0 0 0 0 0 0 127 0" result="hardAlpha"/>
<feMorphology radius="1" operator="erode" in="SourceAlpha" result="effect1_dropShadow_858_1412"/>
<feOffset dy="1"/>
<feGaussianBlur stdDeviation="1"/>
<feComposite in2="hardAlpha" operator="out"/>
<feColorMatrix type="matrix" values="0 0 0 0 0 0 0 0 0 0 0 0 0 0 0 0 0 0 0.1 0"/>
<feBlend mode="normal" in2="BackgroundImageFix" result="effect1_dropShadow_858_1412"/>
<feColorMatrix in="SourceAlpha" type="matrix" values="0 0 0 0 0 0 0 0 0 0 0 0 0 0 0 0 0 0 127 0" result="hardAlpha"/>
<feOffset dy="1"/>
<feGaussianBlur stdDeviation="1.5"/>
<feComposite in2="hardAlpha" operator="out"/>
<feColorMatrix type="matrix" values="0 0 0 0 0 0 0 0 0 0 0 0 0 0 0 0 0 0 0.1 0"/>
<feBlend mode="normal" in2="effect1_dropShadow_858_1412" result="effect2_dropShadow_858_1412"/>
<feBlend mode="normal" in="SourceGraphic" in2="effect2_dropShadow_858_1412" result="shape"/>
</filter>
</defs>
</svg>
