<svg width="16" height="16" viewBox="0 0 16 16" fill="none" xmlns="http://www.w3.org/2000/svg">
<path d="M0.5 7.50022C0.500827 6.70482 0.817163 5.94224 1.37959 5.37981C1.94202 4.81738 2.7046 4.50104 3.5 4.50022H5.9875C6.16938 4.48959 9.33875 4.26647 12.3569 1.73522C12.5026 1.61281 12.6803 1.53454 12.869 1.5096C13.0576 1.48466 13.2495 1.51408 13.4221 1.59442C13.5946 1.67475 13.7407 1.80265 13.843 1.9631C13.9454 2.12355 13.9999 2.30989 14 2.50022V12.5002C14 12.6906 13.9456 12.877 13.8433 13.0376C13.741 13.1981 13.5949 13.3261 13.4224 13.4065C13.2498 13.4869 13.0579 13.5164 12.8691 13.4915C12.6804 13.4666 12.5027 13.3883 12.3569 13.2658C9.99625 11.2858 7.54437 10.7183 6.5 10.5596V12.5421C6.50021 12.7069 6.4597 12.8692 6.38206 13.0145C6.30442 13.1599 6.19207 13.2838 6.055 13.3752L5.3675 13.8333C5.23462 13.922 5.08241 13.9776 4.92364 13.9954C4.76487 14.0132 4.60415 13.9926 4.45494 13.9355C4.30573 13.8784 4.17237 13.7864 4.06603 13.6672C3.95969 13.5479 3.88347 13.405 3.84375 13.2502L3.10812 10.4777C2.38642 10.3817 1.72414 10.0269 1.24441 9.47919C0.764683 8.93152 0.500153 8.22828 0.5 7.50022ZM13 12.4958V2.50022C10.3244 4.74459 7.58563 5.31272 6.5 5.45272V9.54522C7.58437 9.68772 10.3225 10.2546 13 12.4958ZM4.8125 12.9958V13.0027L5.5 12.5446V10.5002H4.15L4.8125 12.9958ZM3.5 9.50022H5.5V5.50022H3.5C2.96957 5.50022 2.46086 5.71093 2.08579 6.086C1.71071 6.46108 1.5 6.96978 1.5 7.50022C1.5 8.03065 1.71071 8.53936 2.08579 8.91443C2.46086 9.2895 2.96957 9.50022 3.5 9.50022Z" fill="#314158"/>
</svg>
