<svg width="16" height="16" viewBox="0 0 16 16" fill="none" xmlns="http://www.w3.org/2000/svg">
<path d="M2.66406 14.6564V2.66447C2.66406 2.56104 2.68814 2.45904 2.7344 2.36653C2.78065 2.27402 2.84781 2.19355 2.93055 2.13149C3.62247 1.61255 4.46404 1.33203 5.32894 1.33203C7.3276 1.33203 8.66004 2.66447 10.2143 2.66447C11.1026 2.66447 11.7837 2.48681 12.2576 2.13149C12.3566 2.05726 12.4743 2.01205 12.5975 2.00094C12.7208 1.98983 12.8446 2.01325 12.9553 2.06859C13.066 2.12392 13.159 2.20897 13.2241 2.31422C13.2891 2.41946 13.3236 2.54075 13.3236 2.66447V9.32667C13.3236 9.43009 13.2995 9.5321 13.2532 9.62461C13.207 9.71712 13.1398 9.79759 13.0571 9.85964C12.3652 10.3786 11.5236 10.6591 10.6587 10.6591C8.66004 10.6591 7.3276 9.32667 5.32894 9.32667C4.34568 9.32669 3.39692 9.68912 2.66406 10.3446" stroke="#E7000B" stroke-width="1.33244" stroke-linecap="round" stroke-linejoin="round"/>
</svg>
